<svg width="14" height="18" viewBox="0 0 14 18" fill="none" xmlns="http://www.w3.org/2000/svg">
<path d="M6.02338 17.4724C4.25928 15.2672 0.323971 10.0088 0.323971 7.02344C0.323971 3.42739 3.2076 0.509832 6.83758 0.509832C10.4336 0.509832 13.3512 3.42739 13.3512 7.02344C13.3512 10.0088 9.38196 15.2672 7.61786 17.4724C7.21075 17.9812 6.43048 17.9812 6.02338 17.4724ZM6.83758 9.19464C8.02496 9.19464 9.00878 8.24474 9.00878 7.02344C9.00878 5.83606 8.02496 4.85224 6.83758 4.85224C5.61628 4.85224 4.66638 5.83606 4.66638 7.02344C4.66638 8.24474 5.61628 9.19464 6.83758 9.19464Z" fill="#023531"/>
</svg>
