<svg width="18" height="19" viewBox="0 0 18 19" fill="none" xmlns="http://www.w3.org/2000/svg">
<path d="M17.4916 13.7616L16.6774 17.1881C16.5756 17.6969 16.1685 18.0362 15.6597 18.0362C7.11056 18.0023 0.155921 11.0476 0.155921 2.49851C0.155921 1.98964 0.461246 1.58254 0.970122 1.48076L4.39655 0.666559C4.8715 0.564784 5.38038 0.836185 5.58393 1.27721L7.17841 4.97504C7.34803 5.41607 7.24626 5.92494 6.87308 6.19634L5.04113 7.68904C6.19458 10.0299 8.09438 11.9297 10.4691 13.0831L11.9618 11.2512C12.2332 10.9119 12.7421 10.7762 13.1831 10.9458L16.881 12.5403C17.322 12.7778 17.5934 13.2867 17.4916 13.7616Z" fill="#023531"/>
</svg>
