<svg width="16" height="16" viewBox="0 0 16 16" fill="none" xmlns="http://www.w3.org/2000/svg">
<path d="M7.8372 3.82818C9.97448 3.82818 11.7386 5.59228 11.7386 7.72956C11.7386 9.90076 9.97448 11.6309 7.8372 11.6309C5.666 11.6309 3.93582 9.90076 3.93582 7.72956C3.93582 5.59228 5.666 3.82818 7.8372 3.82818ZM7.8372 10.2739C9.22813 10.2739 10.3477 9.15441 10.3477 7.72956C10.3477 6.33863 9.22813 5.2191 7.8372 5.2191C6.41235 5.2191 5.29282 6.33863 5.29282 7.72956C5.29282 9.15441 6.44628 10.2739 7.8372 10.2739ZM12.7903 3.69247C12.7903 3.1836 12.3832 2.7765 11.8743 2.7765C11.3654 2.7765 10.9583 3.1836 10.9583 3.69247C10.9583 4.20135 11.3654 4.60845 11.8743 4.60845C12.3832 4.60845 12.7903 4.20135 12.7903 3.69247ZM15.3686 4.60845C15.4364 5.86368 15.4364 9.62936 15.3686 10.8846C15.3007 12.1059 15.0293 13.1576 14.1473 14.0735C13.2652 14.9556 12.1796 15.227 10.9583 15.2948C9.70308 15.3627 5.9374 15.3627 4.68217 15.2948C3.46087 15.227 2.40919 14.9556 1.49322 14.0735C0.611167 13.1576 0.339767 12.1059 0.271917 10.8846C0.204067 9.62936 0.204067 5.86368 0.271917 4.60845C0.339767 3.38715 0.611167 2.30155 1.49322 1.4195C2.40919 0.537446 3.46087 0.266045 4.68217 0.198195C5.9374 0.130345 9.70308 0.130345 10.9583 0.198195C12.1796 0.266045 13.2652 0.537446 14.1473 1.4195C15.0293 2.30155 15.3007 3.38715 15.3686 4.60845ZM13.7402 12.2077C14.1473 11.2238 14.0455 8.84908 14.0455 7.72956C14.0455 6.64395 14.1473 4.2692 13.7402 3.25145C13.4688 2.60687 12.9599 2.06407 12.3153 1.8266C11.2976 1.4195 8.9228 1.52127 7.8372 1.52127C6.71768 1.52127 4.34292 1.4195 3.3591 1.8266C2.6806 2.098 2.17172 2.60687 1.90032 3.25145C1.49322 4.2692 1.59499 6.64395 1.59499 7.72956C1.59499 8.84908 1.49322 11.2238 1.90032 12.2077C2.17172 12.8862 2.6806 13.395 3.3591 13.6664C4.34292 14.0735 6.71768 13.9718 7.8372 13.9718C8.9228 13.9718 11.2976 14.0735 12.3153 13.6664C12.9599 13.395 13.5027 12.8862 13.7402 12.2077Z" fill="#023531"/>
</svg>
