<svg width="18" height="14" viewBox="0 0 18 14" fill="none" xmlns="http://www.w3.org/2000/svg">
<path d="M15.3524 0.0926557C16.5398 0.0926557 17.5236 1.07648 17.5236 2.26386V10.9487C17.5236 12.17 16.5398 13.1199 15.3524 13.1199H2.32517C1.10387 13.1199 0.153968 12.17 0.153968 10.9487V2.26386C0.153968 1.07648 1.10387 0.0926557 2.32517 0.0926557H15.3524ZM2.32517 1.72106C2.01985 1.72106 1.78237 1.99246 1.78237 2.26386V3.04413L7.41393 7.72579C8.1942 8.37037 9.44943 8.37037 10.2297 7.72579L15.8952 3.04413V2.26386C15.8952 1.99246 15.6238 1.72106 15.3524 1.72106H2.32517ZM15.3524 11.4915C15.6238 11.4915 15.8952 11.254 15.8952 10.9487V5.14749L11.2475 9.01494C10.569 9.55774 9.72083 9.86307 8.83878 9.86307C7.9228 9.86307 7.07468 9.55774 6.39618 9.01494L1.78237 5.14749V10.9487C1.78237 11.254 2.01985 11.4915 2.32517 11.4915H15.3524Z" fill="#023531"/>
</svg>
