<svg width="18" height="18" viewBox="0 0 18 18" fill="none" xmlns="http://www.w3.org/2000/svg">
<path d="M14.7946 2.7697C16.3975 4.37266 17.3898 6.47177 17.3898 8.76171C17.3898 13.4179 13.4969 17.2345 8.80257 17.2345C7.39044 17.2345 6.01647 16.8528 4.757 16.204L0.29162 17.349L1.47476 12.9599C0.749608 11.7005 0.329786 10.2502 0.329786 8.72354C0.329786 4.06733 4.14635 0.250762 8.80257 0.250762C11.0925 0.250762 13.2298 1.16674 14.7946 2.7697ZM8.80257 15.7842C12.6955 15.7842 15.9395 12.6164 15.9395 8.76171C15.9395 6.85343 15.1381 5.0978 13.8023 3.762C12.4665 2.42621 10.7109 1.70106 8.84073 1.70106C4.94783 1.70106 1.78008 4.86881 1.78008 8.72354C1.78008 10.0593 2.16174 11.357 2.84872 12.5019L3.03955 12.7691L2.3144 15.3644L4.986 14.6392L5.21499 14.7919C6.3218 15.4407 7.5431 15.7842 8.80257 15.7842ZM12.6955 10.5173C12.8863 10.6318 13.039 10.67 13.0771 10.7845C13.1535 10.8608 13.1535 11.2806 12.9626 11.7768C12.7718 12.273 11.9322 12.7309 11.5505 12.7691C10.8635 12.8836 10.3292 12.8454 8.9934 12.2348C6.85612 11.3188 5.48215 9.18153 5.36766 9.06703C5.25316 8.91437 4.52801 7.92206 4.52801 6.85343C4.52801 5.82295 5.06233 5.3268 5.25316 5.0978C5.44399 4.86881 5.67298 4.83064 5.82564 4.83064C5.94014 4.83064 6.0928 4.83064 6.2073 4.83064C6.35996 4.83064 6.51263 4.79248 6.70345 5.2123C6.85612 5.63212 7.31411 6.6626 7.35227 6.77709C7.39044 6.89159 7.4286 7.00609 7.35227 7.15875C6.97061 7.96023 6.51263 7.92206 6.74162 8.30372C7.58127 9.71585 8.38274 10.212 9.64221 10.8227C9.83304 10.9372 9.94754 10.899 10.1002 10.7845C10.2147 10.6318 10.6345 10.1357 10.749 9.94485C10.9017 9.71585 11.0543 9.75402 11.2452 9.83035C11.436 9.90668 12.4665 10.4028 12.6955 10.5173Z" fill="#023531"/>
</svg>
