<svg width="18" height="15" viewBox="0 0 18 15" fill="none" xmlns="http://www.w3.org/2000/svg">
<path d="M15.7256 4.29705C15.7256 4.46668 15.7256 4.60238 15.7256 4.772C15.7256 9.48759 12.1634 14.8817 5.6159 14.8817C3.5804 14.8817 1.71452 14.3049 0.153968 13.2872C0.425368 13.3211 0.696769 13.355 1.00209 13.355C2.66442 13.355 4.19105 12.7783 5.41235 11.8284C3.8518 11.7945 2.52872 10.7767 2.0877 9.35189C2.32517 9.38581 2.52872 9.41974 2.7662 9.41974C3.07152 9.41974 3.41077 9.35189 3.68217 9.28404C2.05377 8.94478 0.832469 7.51993 0.832469 5.78976V5.75583C1.30742 6.02723 1.88415 6.16293 2.46087 6.19686C1.47704 5.55228 0.866394 4.46668 0.866394 3.24538C0.866394 2.56688 1.03602 1.95623 1.34134 1.44735C3.10545 3.58463 5.7516 5.00948 8.70308 5.1791C8.63523 4.9077 8.6013 4.6363 8.6013 4.3649C8.6013 2.39725 10.1958 0.802774 12.1634 0.802774C13.1812 0.802774 14.0972 1.20987 14.7757 1.9223C15.5559 1.75268 16.3362 1.44735 17.0147 1.04025C16.7433 1.88838 16.2005 2.56688 15.4542 3.0079C16.1666 2.94005 16.879 2.7365 17.4897 2.4651C17.0147 3.17753 16.4041 3.78818 15.7256 4.29705Z" fill="#023531"/>
</svg>
