<svg width="31" height="30" viewBox="0 0 31 30" fill="none" xmlns="http://www.w3.org/2000/svg">
<rect x="0.344727" width="30" height="30" rx="6" fill="#3B5998"/>
<path fill-rule="evenodd" clip-rule="evenodd" d="M19.4052 11.5C19.4052 11.85 19.1726 12.0834 18.8237 12.0834H17.0789V13.25H18.8237C18.9981 13.25 19.1726 13.25 19.2889 13.425C19.4052 13.6 19.4634 13.775 19.4052 13.95L18.8237 16.2834C18.7655 16.575 18.5329 16.75 18.2421 16.75H17.0789V20.8334C17.0789 21.1834 16.8463 21.4167 16.4974 21.4167H14.171C13.8221 21.4167 13.5895 21.1834 13.5895 20.8334V16.75H12.4263C12.0774 16.75 11.8447 16.5167 11.8447 16.1667V13.8334C11.8447 13.4834 12.0774 13.25 12.4263 13.25H13.5895V12.0834C13.5895 10.1584 15.1597 8.58337 17.0789 8.58337H18.8237C19.1726 8.58337 19.4052 8.81671 19.4052 9.16671V11.5ZM18.0676 14.4167H16.4974C16.1484 14.4167 15.9158 14.1834 15.9158 13.8334V12.0834C15.9158 11.4417 16.4392 10.9167 17.0789 10.9167H18.2421V9.75004H17.0789C15.7995 9.75004 14.7526 10.8 14.7526 12.0834V13.8334C14.7526 14.1834 14.52 14.4167 14.171 14.4167H13.0079V15.5834H14.171C14.52 15.5834 14.7526 15.8167 14.7526 16.1667V20.25H15.9158V16.1667C15.9158 15.8167 16.1484 15.5834 16.4974 15.5834H17.7768L18.0676 14.4167Z" fill="black"/>
<mask id="mask0_228_655" style="mask-type:luminance" maskUnits="userSpaceOnUse" x="11" y="8" width="9" height="14">
<path fill-rule="evenodd" clip-rule="evenodd" d="M19.4052 11.5C19.4052 11.85 19.1726 12.0834 18.8237 12.0834H17.0789V13.25H18.8237C18.9981 13.25 19.1726 13.25 19.2889 13.425C19.4052 13.6 19.4634 13.775 19.4052 13.95L18.8237 16.2834C18.7655 16.575 18.5329 16.75 18.2421 16.75H17.0789V20.8334C17.0789 21.1834 16.8463 21.4167 16.4974 21.4167H14.171C13.8221 21.4167 13.5895 21.1834 13.5895 20.8334V16.75H12.4263C12.0774 16.75 11.8447 16.5167 11.8447 16.1667V13.8334C11.8447 13.4834 12.0774 13.25 12.4263 13.25H13.5895V12.0834C13.5895 10.1584 15.1597 8.58337 17.0789 8.58337H18.8237C19.1726 8.58337 19.4052 8.81671 19.4052 9.16671V11.5ZM18.0676 14.4167H16.4974C16.1484 14.4167 15.9158 14.1834 15.9158 13.8334V12.0834C15.9158 11.4417 16.4392 10.9167 17.0789 10.9167H18.2421V9.75004H17.0789C15.7995 9.75004 14.7526 10.8 14.7526 12.0834V13.8334C14.7526 14.1834 14.52 14.4167 14.171 14.4167H13.0079V15.5834H14.171C14.52 15.5834 14.7526 15.8167 14.7526 16.1667V20.25H15.9158V16.1667C15.9158 15.8167 16.1484 15.5834 16.4974 15.5834H17.7768L18.0676 14.4167Z" fill="white"/>
</mask>
<g mask="url(#mask0_228_655)">
<rect x="8.34473" y="8" width="14" height="14" fill="white"/>
</g>
</svg>
