<svg width="31" height="30" viewBox="0 0 31 30" fill="none" xmlns="http://www.w3.org/2000/svg">
<rect x="0.344727" width="30" height="30" rx="6" fill="#211F1F"/>
<path d="M18.308 18.1025C18.4271 18.4515 18.4866 18.8587 18.4866 19.2078V21.4183C18.4866 21.7674 18.2484 22 17.8912 22C17.5339 22 17.2957 21.7674 17.2957 21.4183V19.1496C17.3553 18.6842 17.1766 18.3352 16.8789 18.0443C16.7003 17.8698 16.6408 17.6371 16.7598 17.4626C16.8194 17.2299 17.0576 17.1136 17.2362 17.0554C18.963 16.8809 20.5707 16.2991 20.5707 13.565C20.5707 12.9251 20.3325 12.2852 19.8561 11.7617C19.6775 11.5872 19.6775 11.3545 19.7371 11.18C19.9157 10.7146 19.9157 10.2492 19.7966 9.78383C19.4989 9.842 19.0225 10.0165 18.2484 10.5401C18.1294 10.6564 17.9507 10.6564 17.7721 10.5982C16.5217 10.2492 15.1521 10.2492 13.9017 10.5982C13.7231 10.6564 13.5444 10.6564 13.3658 10.5401C12.6513 10.0165 12.1154 9.842 11.8177 9.78383C11.6986 10.2492 11.6986 10.7146 11.8772 11.18C11.9368 11.4127 11.9368 11.6453 11.7581 11.7617C11.2818 12.2852 11.0436 12.9251 11.0436 13.565C11.0436 16.2991 12.6513 16.8809 14.3781 17.0554C14.6162 17.0554 14.7949 17.2299 14.8544 17.4626C14.914 17.6953 14.8544 17.928 14.7353 18.0443C14.4376 18.3352 14.3185 18.6842 14.3185 19.0914V19.615V19.6731V21.3601C14.3185 21.7092 14.0803 21.9419 13.7231 21.9419C13.3658 21.9419 13.1276 21.7092 13.1276 21.3601V20.3712C11.3413 20.6621 10.5672 19.6731 10.0313 19.0332C9.79316 18.7424 9.61453 18.5097 9.37635 18.4515C9.07863 18.3934 8.84045 18.0443 8.95954 17.7535C9.01908 17.4626 9.37635 17.2299 9.67407 17.3462C10.2695 17.5208 10.6268 17.928 10.984 18.3352C11.4604 18.9751 11.8772 19.4405 13.1276 19.2078V19.1496C13.1276 18.8006 13.1872 18.3934 13.3063 18.1025C11.639 17.7535 9.8527 16.7064 9.8527 13.6232C9.8527 12.7506 10.1504 11.9362 10.6863 11.2963C10.4481 10.4819 10.5077 9.72566 10.865 8.96942C10.9245 8.7949 11.0436 8.67855 11.2222 8.62038C11.4604 8.56221 12.2345 8.44586 13.8422 9.4348C15.1521 9.14393 16.5217 9.14393 17.7721 9.4348C19.3202 8.44586 20.1539 8.56221 20.392 8.62038C20.5707 8.67855 20.6898 8.7949 20.7493 8.96942C21.047 9.72566 21.1066 10.4819 20.9279 11.2381C21.4638 11.878 21.7616 12.6925 21.7616 13.565C21.7616 16.8809 19.7371 17.8116 18.308 18.1025Z" fill="black"/>
<mask id="mask0_228_646" style="mask-type:luminance" maskUnits="userSpaceOnUse" x="8" y="8" width="14" height="14">
<path d="M18.308 18.1025C18.4271 18.4515 18.4866 18.8587 18.4866 19.2078V21.4183C18.4866 21.7674 18.2484 22 17.8912 22C17.5339 22 17.2957 21.7674 17.2957 21.4183V19.1496C17.3553 18.6842 17.1766 18.3352 16.8789 18.0443C16.7003 17.8698 16.6408 17.6371 16.7598 17.4626C16.8194 17.2299 17.0576 17.1136 17.2362 17.0554C18.963 16.8809 20.5707 16.2991 20.5707 13.565C20.5707 12.9251 20.3325 12.2852 19.8561 11.7617C19.6775 11.5872 19.6775 11.3545 19.7371 11.18C19.9157 10.7146 19.9157 10.2492 19.7966 9.78383C19.4989 9.842 19.0225 10.0165 18.2484 10.5401C18.1294 10.6564 17.9507 10.6564 17.7721 10.5982C16.5217 10.2492 15.1521 10.2492 13.9017 10.5982C13.7231 10.6564 13.5444 10.6564 13.3658 10.5401C12.6513 10.0165 12.1154 9.842 11.8177 9.78383C11.6986 10.2492 11.6986 10.7146 11.8772 11.18C11.9368 11.4127 11.9368 11.6453 11.7581 11.7617C11.2818 12.2852 11.0436 12.9251 11.0436 13.565C11.0436 16.2991 12.6513 16.8809 14.3781 17.0554C14.6162 17.0554 14.7949 17.2299 14.8544 17.4626C14.914 17.6953 14.8544 17.928 14.7353 18.0443C14.4376 18.3352 14.3185 18.6842 14.3185 19.0914V19.615V19.6731V21.3601C14.3185 21.7092 14.0803 21.9419 13.7231 21.9419C13.3658 21.9419 13.1276 21.7092 13.1276 21.3601V20.3712C11.3413 20.6621 10.5672 19.6731 10.0313 19.0332C9.79316 18.7424 9.61453 18.5097 9.37635 18.4515C9.07863 18.3934 8.84045 18.0443 8.95954 17.7535C9.01908 17.4626 9.37635 17.2299 9.67407 17.3462C10.2695 17.5208 10.6268 17.928 10.984 18.3352C11.4604 18.9751 11.8772 19.4405 13.1276 19.2078V19.1496C13.1276 18.8006 13.1872 18.3934 13.3063 18.1025C11.639 17.7535 9.8527 16.7064 9.8527 13.6232C9.8527 12.7506 10.1504 11.9362 10.6863 11.2963C10.4481 10.4819 10.5077 9.72566 10.865 8.96942C10.9245 8.7949 11.0436 8.67855 11.2222 8.62038C11.4604 8.56221 12.2345 8.44586 13.8422 9.4348C15.1521 9.14393 16.5217 9.14393 17.7721 9.4348C19.3202 8.44586 20.1539 8.56221 20.392 8.62038C20.5707 8.67855 20.6898 8.7949 20.7493 8.96942C21.047 9.72566 21.1066 10.4819 20.9279 11.2381C21.4638 11.878 21.7616 12.6925 21.7616 13.565C21.7616 16.8809 19.7371 17.8116 18.308 18.1025Z" fill="white"/>
</mask>
<g mask="url(#mask0_228_646)">
<rect x="8.34473" y="8" width="14" height="14" fill="white"/>
</g>
</svg>
