<svg width="31" height="30" viewBox="0 0 31 30" fill="none" xmlns="http://www.w3.org/2000/svg">
<rect x="0.344727" width="30" height="30" rx="6" fill="#DB3236"/>
<path fill-rule="evenodd" clip-rule="evenodd" d="M20.0116 9.75H10.6782C9.68656 9.75 8.92822 10.5083 8.92822 11.5V18.5C8.92822 19.4917 9.68656 20.25 10.6782 20.25H20.0116C21.0032 20.25 21.7616 19.4917 21.7616 18.5V11.5C21.7616 10.5083 21.0032 9.75 20.0116 9.75ZM10.6782 10.9167H20.0116C20.2449 10.9167 20.4199 11.0333 20.5366 11.2667L15.3449 14.8833L10.1532 11.2667C10.2699 11.0333 10.4449 10.9167 10.6782 10.9167ZM10.0949 18.5C10.0949 18.85 10.3282 19.0833 10.6782 19.0833H20.0116C20.3616 19.0833 20.5949 18.85 20.5949 18.5V12.6083L15.6949 16.05C15.5782 16.1083 15.4616 16.1667 15.3449 16.1667C15.2282 16.1667 15.1116 16.1083 14.9949 16.05L10.0949 12.6083V18.5Z" fill="black"/>
<mask id="mask0_228_649" style="mask-type:luminance" maskUnits="userSpaceOnUse" x="8" y="9" width="14" height="12">
<path fill-rule="evenodd" clip-rule="evenodd" d="M20.0116 9.75H10.6782C9.68656 9.75 8.92822 10.5083 8.92822 11.5V18.5C8.92822 19.4917 9.68656 20.25 10.6782 20.25H20.0116C21.0032 20.25 21.7616 19.4917 21.7616 18.5V11.5C21.7616 10.5083 21.0032 9.75 20.0116 9.75ZM10.6782 10.9167H20.0116C20.2449 10.9167 20.4199 11.0333 20.5366 11.2667L15.3449 14.8833L10.1532 11.2667C10.2699 11.0333 10.4449 10.9167 10.6782 10.9167ZM10.0949 18.5C10.0949 18.85 10.3282 19.0833 10.6782 19.0833H20.0116C20.3616 19.0833 20.5949 18.85 20.5949 18.5V12.6083L15.6949 16.05C15.5782 16.1083 15.4616 16.1667 15.3449 16.1667C15.2282 16.1667 15.1116 16.1083 14.9949 16.05L10.0949 12.6083V18.5Z" fill="white"/>
</mask>
<g mask="url(#mask0_228_649)">
<rect x="8.34473" y="8" width="14" height="14" fill="white"/>
</g>
</svg>
