<svg width="31" height="30" viewBox="0 0 31 30" fill="none" xmlns="http://www.w3.org/2000/svg">
<rect x="0.344727" width="30" height="30" rx="6" fill="#00ACEE"/>
<path fill-rule="evenodd" clip-rule="evenodd" d="M21.4565 9.27677C21.6311 9.15944 21.9221 9.15944 22.0968 9.27677C22.2714 9.39409 22.3878 9.62874 22.3296 9.86339C22.155 10.6847 21.7475 11.4473 21.1654 12.0926V12.3859C21.1654 15.6123 19.7684 18.3108 17.2655 19.7187C15.9849 20.4813 14.5879 20.8333 13.1327 20.8333C11.6774 20.8333 10.1058 20.4227 8.6506 19.6014C8.41777 19.4841 8.30135 19.1907 8.35956 18.9561C8.41777 18.7214 8.70881 18.5455 8.94164 18.5455C9.93119 18.5455 10.9207 18.3695 11.7939 17.9588C9.64015 16.6096 9.05806 14.7324 8.99985 13.2658C8.94164 11.5646 9.52373 10.1567 9.58194 10.098C9.64015 9.92206 9.81477 9.74607 10.0476 9.74607C10.2804 9.74607 10.4551 9.80473 10.5715 9.98072C11.561 11.3886 13.0744 12.2686 14.7625 12.3859C14.7625 11.4473 15.1699 10.5673 15.9267 9.98072C17.149 8.86613 18.9535 8.92479 20.1177 9.98072C20.5833 9.80473 21.049 9.57008 21.4565 9.27677ZM19.943 12.0339C19.943 11.8579 20.0012 11.6233 20.1177 11.5059C20.1759 11.418 20.2341 11.3446 20.2923 11.2713C20.3505 11.198 20.4087 11.1246 20.4669 11.0366C20.4087 11.066 20.3359 11.0806 20.2632 11.0953C20.1904 11.11 20.1177 11.1246 20.0595 11.154C19.8848 11.2126 19.652 11.154 19.4774 10.978C18.7789 10.1567 17.4401 10.0394 16.6252 10.802C16.1595 11.2126 15.9267 11.7993 15.9267 12.3859V12.9725C15.9267 13.2658 15.6356 13.5591 15.3446 13.5591C13.4237 13.6178 11.6192 12.8552 10.3386 11.5646C9.9894 13.0312 9.87298 15.9056 13.2491 17.4309C13.4237 17.4895 13.5983 17.6655 13.5983 17.9002C13.5983 18.1348 13.5401 18.3108 13.3073 18.4281C12.667 18.8974 11.9685 19.1907 11.2118 19.4254C13.1327 19.8947 15.0535 19.66 16.6834 18.7214C18.7789 17.4895 20.0012 15.2017 20.0012 12.3859C20.0012 12.2686 20.0012 12.1512 19.943 12.0339Z" fill="black"/>
<mask id="mask0_228_652" style="mask-type:luminance" maskUnits="userSpaceOnUse" x="8" y="9" width="15" height="12">
<path fill-rule="evenodd" clip-rule="evenodd" d="M21.4565 9.27677C21.6311 9.15944 21.9221 9.15944 22.0968 9.27677C22.2714 9.39409 22.3878 9.62874 22.3296 9.86339C22.155 10.6847 21.7475 11.4473 21.1654 12.0926V12.3859C21.1654 15.6123 19.7684 18.3108 17.2655 19.7187C15.9849 20.4813 14.5879 20.8333 13.1327 20.8333C11.6774 20.8333 10.1058 20.4227 8.6506 19.6014C8.41777 19.4841 8.30135 19.1907 8.35956 18.9561C8.41777 18.7214 8.70881 18.5455 8.94164 18.5455C9.93119 18.5455 10.9207 18.3695 11.7939 17.9588C9.64015 16.6096 9.05806 14.7324 8.99985 13.2658C8.94164 11.5646 9.52373 10.1567 9.58194 10.098C9.64015 9.92206 9.81477 9.74607 10.0476 9.74607C10.2804 9.74607 10.4551 9.80473 10.5715 9.98072C11.561 11.3886 13.0744 12.2686 14.7625 12.3859C14.7625 11.4473 15.1699 10.5673 15.9267 9.98072C17.149 8.86613 18.9535 8.92479 20.1177 9.98072C20.5833 9.80473 21.049 9.57008 21.4565 9.27677ZM19.943 12.0339C19.943 11.8579 20.0012 11.6233 20.1177 11.5059C20.1759 11.418 20.2341 11.3446 20.2923 11.2713C20.3505 11.198 20.4087 11.1246 20.4669 11.0366C20.4087 11.066 20.3359 11.0806 20.2632 11.0953C20.1904 11.11 20.1177 11.1246 20.0595 11.154C19.8848 11.2126 19.652 11.154 19.4774 10.978C18.7789 10.1567 17.4401 10.0394 16.6252 10.802C16.1595 11.2126 15.9267 11.7993 15.9267 12.3859V12.9725C15.9267 13.2658 15.6356 13.5591 15.3446 13.5591C13.4237 13.6178 11.6192 12.8552 10.3386 11.5646C9.9894 13.0312 9.87298 15.9056 13.2491 17.4309C13.4237 17.4895 13.5983 17.6655 13.5983 17.9002C13.5983 18.1348 13.5401 18.3108 13.3073 18.4281C12.667 18.8974 11.9685 19.1907 11.2118 19.4254C13.1327 19.8947 15.0535 19.66 16.6834 18.7214C18.7789 17.4895 20.0012 15.2017 20.0012 12.3859C20.0012 12.2686 20.0012 12.1512 19.943 12.0339Z" fill="white"/>
</mask>
<g mask="url(#mask0_228_652)">
<rect x="8.34473" y="8" width="14" height="14" fill="white"/>
</g>
</svg>
