<svg width="28" height="30" viewBox="0 0 28 30" fill="none" xmlns="http://www.w3.org/2000/svg">
<path fill-rule="evenodd" clip-rule="evenodd" d="M1.16378 8.08958C2.34433 6.68604 4.36835 5.99994 7.3324 5.99994H20.6657C23.6298 5.99994 25.6538 6.68604 26.8343 8.08958C28.0034 9.47949 28.1146 11.3055 27.9273 13.0081L26.9268 23.6798C26.7799 25.0506 26.4358 26.5534 25.2119 27.6716C23.997 28.7814 22.1149 29.3333 19.3324 29.3333H8.66573C5.88327 29.3333 4.0011 28.7814 2.78625 27.6716C1.56233 26.5534 1.21829 25.0506 1.07142 23.6798L1.07001 23.6666L0.0708652 13.0081C-0.116507 11.3055 -0.00530895 9.4795 1.16378 8.08958ZM2.69435 9.37697C2.06538 10.1247 1.88834 11.2483 2.05967 12.7966L2.06151 12.8133L3.06074 23.4732C3.19413 24.7123 3.47029 25.5875 4.13522 26.195C4.81036 26.8118 6.0882 27.3333 8.66573 27.3333H19.3324C21.9099 27.3333 23.1878 26.8118 23.8629 26.195C24.5278 25.5875 24.804 24.7123 24.9374 23.4732L25.9383 12.7966C26.1097 11.2483 25.9328 10.1247 25.3038 9.37697C24.6843 8.64051 23.395 7.99994 20.6657 7.99994H7.3324C4.60312 7.99994 3.3138 8.64051 2.69435 9.37697Z" fill="white"/>
<path fill-rule="evenodd" clip-rule="evenodd" d="M9.72427 4.40046C9.66763 4.83431 9.66602 5.32735 9.66602 5.93329V6.99996C9.66602 7.55224 9.2183 7.99996 8.66602 7.99996C8.11373 7.99996 7.66602 7.55224 7.66602 6.99996L7.66602 5.89864C7.66599 5.33393 7.66595 4.71714 7.7411 4.14154C7.81897 3.54514 7.98582 2.91197 8.37671 2.3464C9.19902 1.15661 10.7054 0.666626 12.9327 0.666626H15.066C17.2933 0.666626 18.7997 1.15661 19.622 2.3464C20.0129 2.91197 20.1797 3.54514 20.2576 4.14154C20.3328 4.71714 20.3327 5.33394 20.3327 5.89865L20.3327 6.99996C20.3327 7.55224 19.885 7.99996 19.3327 7.99996C18.7804 7.99996 18.3327 7.55224 18.3327 6.99996V5.93329C18.3327 5.32735 18.3311 4.83431 18.2744 4.40046C18.219 3.97561 18.1192 3.68962 17.9767 3.48352C17.7324 3.12997 17.1054 2.66663 15.066 2.66663H12.9327C10.8933 2.66663 10.2663 3.12997 10.022 3.48352C9.87955 3.68962 9.77974 3.97561 9.72427 4.40046Z" fill="white"/>
<path fill-rule="evenodd" clip-rule="evenodd" d="M12.3331 16.001C12.3321 16.0962 12.332 16.2047 12.332 16.3333V17.7066C12.332 18.082 12.3353 18.3581 12.3679 18.5923C12.3993 18.8176 12.449 18.9272 12.4912 18.9867C12.5383 19.0531 12.7728 19.3333 13.9987 19.3333C15.2302 19.3333 15.4619 19.0504 15.5079 18.9846C15.5504 18.924 15.6 18.8127 15.6309 18.5848C15.6629 18.3479 15.6654 18.0705 15.6654 17.6933V16.3333C15.6654 16.2047 15.6654 16.0962 15.6643 16.001C15.5691 16 15.4606 16 15.332 16H12.6654C12.5368 16 12.4283 16 12.3331 16.001ZM12.6216 13.9999C12.6362 13.9999 12.6508 14 12.6654 14H15.332C15.3466 14 15.3612 13.9999 15.3758 13.9999C15.6707 13.9999 15.9695 13.9998 16.2133 14.0269C16.4618 14.0545 16.8747 14.1284 17.2058 14.4595C17.537 14.7907 17.6108 15.2035 17.6384 15.452C17.6655 15.6958 17.6655 15.9946 17.6654 16.2895C17.6654 16.3041 17.6654 16.3187 17.6654 16.3333V17.7082C17.6654 18.0545 17.6654 18.4643 17.6128 18.853C17.5582 19.2564 17.4387 19.7142 17.1461 20.1319C16.5222 21.0228 15.4206 21.3333 13.9987 21.3333C12.5846 21.3333 11.4858 21.0268 10.8595 20.1432C10.565 19.7277 10.4432 19.2715 10.387 18.868C10.3321 18.4735 10.332 18.0579 10.332 17.7066V16.3333C10.332 16.3187 10.332 16.3041 10.332 16.2895C10.332 15.9946 10.3319 15.6958 10.359 15.452C10.3866 15.2035 10.4604 14.7907 10.7916 14.4595C11.1228 14.1284 11.5356 14.0545 11.7841 14.0269C12.0279 13.9998 12.3267 13.9999 12.6216 13.9999Z" fill="white"/>
<path fill-rule="evenodd" clip-rule="evenodd" d="M27.6749 13.0785C27.9997 13.5251 27.9009 14.1505 27.4543 14.4754C24.2328 16.8183 20.5521 18.2118 16.7911 18.6855C16.2431 18.7545 15.743 18.3662 15.674 17.8182C15.605 17.2703 15.9932 16.7701 16.5412 16.7011C19.9801 16.2681 23.3395 14.995 26.278 12.8579C26.7246 12.5331 27.35 12.6318 27.6749 13.0785Z" fill="white"/>
<path fill-rule="evenodd" clip-rule="evenodd" d="M0.667065 13.4618C0.979004 13.0061 1.60134 12.8895 2.0571 13.2014C4.92229 15.1625 8.15328 16.3444 11.4436 16.7129C11.9924 16.7743 12.3875 17.2691 12.3261 17.8179C12.2646 18.3668 11.7699 18.7619 11.221 18.7004C7.60462 18.2955 4.06227 16.9975 0.927467 14.8519C0.471712 14.5399 0.355126 13.9176 0.667065 13.4618Z" fill="white"/>
</svg>
