<svg width="32" height="32" viewBox="0 0 32 32" fill="none" xmlns="http://www.w3.org/2000/svg">
<path fill-rule="evenodd" clip-rule="evenodd" d="M1 30.8837C1 30.2672 1.49978 29.7675 2.11628 29.7675H28.907C29.5235 29.7675 30.0233 30.2672 30.0233 30.8837C30.0233 31.5002 29.5235 32 28.907 32H2.11628C1.49978 32 1 31.5002 1 30.8837Z" fill="white"/>
<path fill-rule="evenodd" clip-rule="evenodd" d="M1 12.1018C1 10.6666 2.16954 9.4971 3.60465 9.4971H5.98601C7.42112 9.4971 8.59066 10.6666 8.59066 12.1018V24.9315C8.59066 26.3666 7.42112 27.5362 5.98601 27.5362H3.60465C2.16954 27.5362 1 26.3666 1 24.9315V12.1018ZM3.60465 11.7297C3.40255 11.7297 3.23256 11.8997 3.23256 12.1018V24.9315C3.23256 25.1336 3.40255 25.3036 3.60465 25.3036H5.98601C6.18811 25.3036 6.3581 25.1336 6.3581 24.9315V12.1018C6.3581 11.8997 6.18811 11.7297 5.98601 11.7297H3.60465Z" fill="white"/>
<path fill-rule="evenodd" clip-rule="evenodd" d="M11.7148 7.35175C11.7148 5.91664 12.8844 4.7471 14.3195 4.7471H16.7009C18.136 4.7471 19.3055 5.91664 19.3055 7.35175V24.9294C19.3055 26.3645 18.136 27.5341 16.7009 27.5341H14.3195C12.8844 27.5341 11.7148 26.3645 11.7148 24.9294V7.35175ZM14.3195 6.97966C14.1174 6.97966 13.9474 7.14965 13.9474 7.35175V24.9294C13.9474 25.1315 14.1174 25.3015 14.3195 25.3015H16.7009C16.903 25.3015 17.0729 25.1315 17.0729 24.9294V7.35175C17.0729 7.14965 16.903 6.97966 16.7009 6.97966H14.3195Z" fill="white"/>
<path fill-rule="evenodd" clip-rule="evenodd" d="M22.4307 2.60465C22.4307 1.16954 23.6002 0 25.0353 0H27.4167C28.8518 0 30.0213 1.16954 30.0213 2.60465V24.9302C30.0213 26.3653 28.8518 27.5349 27.4167 27.5349H25.0353C23.6002 27.5349 22.4307 26.3653 22.4307 24.9302V2.60465ZM25.0353 2.23256C24.8332 2.23256 24.6632 2.40255 24.6632 2.60465V24.9302C24.6632 25.1323 24.8332 25.3023 25.0353 25.3023H27.4167C27.6188 25.3023 27.7888 25.1323 27.7888 24.9302V2.60465C27.7888 2.40255 27.6188 2.23256 27.4167 2.23256H25.0353Z" fill="white"/>
</svg>
