<svg width="32" height="32" viewBox="0 0 32 32" fill="none" xmlns="http://www.w3.org/2000/svg">
<g clip-path="url(#clip0_4280_2148)">
<path d="M25.9052 4.30403L25.9056 4.30451C26.5079 4.90337 26.9854 5.61571 27.3106 6.40032C27.6357 7.18493 27.8021 8.02622 27.8 8.87554V8.87603V25.3331C27.798 27.0476 27.116 28.6913 25.9036 29.9037C24.6913 31.116 23.0476 31.798 21.3331 31.8H10.6669C8.95241 31.798 7.30872 31.116 6.09638 29.9037C4.88408 28.6913 4.20209 27.0477 4.2 25.3332V6.66681C4.20209 4.95235 4.88408 3.30872 6.09638 2.09641C7.30869 0.884099 8.95234 0.20211 10.6668 0.200027L19.124 0.200028L19.1246 0.200026C19.974 0.1976 20.8155 0.363664 21.6003 0.688607C22.3852 1.01355 23.0978 1.49092 23.6969 2.09309L23.6972 2.09336L25.9052 4.30403ZM24.6667 6.86669H25.0379L24.8337 6.55666C24.6793 6.32232 24.5013 6.10441 24.3025 5.90634L22.0948 3.69861L22.0943 3.69815C21.8953 3.50047 21.6776 3.32257 21.4443 3.16697L21.1333 2.9596V3.33336V6.66669V6.86669H21.3333H24.6667ZM18.8667 2.66669V2.46669H18.6667H10.6667C9.55276 2.46669 8.48447 2.90919 7.69682 3.69685C6.90917 4.4845 6.46667 5.55278 6.46667 6.66669V25.3334C6.46667 26.4473 6.90917 27.5156 7.69682 28.3032C8.48447 29.0909 9.55276 29.5334 10.6667 29.5334H21.3333C22.4472 29.5334 23.5155 29.0909 24.3032 28.3032C25.0908 27.5156 25.5333 26.4473 25.5333 25.3334V9.33336V9.13336H25.3333H21.3333C20.6791 9.13336 20.0517 8.87348 19.5891 8.41089C19.1265 7.9483 18.8667 7.32089 18.8667 6.66669V2.66669ZM22.2488 23.3349L22.2489 23.335C22.4251 23.5773 22.4981 23.8796 22.452 24.1757C22.406 24.4712 22.245 24.7366 22.0041 24.914C20.6862 25.8528 19.1256 26.3918 17.5093 26.4667C16.5875 26.4611 15.694 26.1478 14.9706 25.5764L14.9709 25.5761L14.9598 25.5684C14.7443 25.4206 14.5786 25.3099 14.4223 25.2388C14.256 25.1632 14.1033 25.1334 13.9133 25.1334H13.898L13.8828 25.1357C12.959 25.2787 12.0874 25.656 11.3511 26.2317C11.1123 26.4005 10.8174 26.4706 10.528 26.427C10.2373 26.3833 9.97491 26.2282 9.79634 25.9946C9.61776 25.7611 9.53696 25.4672 9.57099 25.1752C9.60492 24.8839 9.75037 24.6173 9.97675 24.431C11.1183 23.5455 12.4881 23.003 13.9263 22.8669C14.7646 22.8826 15.5747 23.1728 16.2324 23.693C16.5842 24.0074 17.0361 24.1871 17.5079 24.2L17.5181 24.2002L17.5283 24.1995C18.6542 24.1151 19.7369 23.7305 20.6636 23.0855L20.6636 23.0856L20.6667 23.0833C20.9099 22.907 21.2132 22.8345 21.5099 22.8816C21.8065 22.9288 22.0723 23.0918 22.2488 23.3349ZM21.3333 12.2C21.6339 12.2 21.9222 12.3194 22.1347 12.532C22.3473 12.7445 22.4667 13.0328 22.4667 13.3334C22.4667 13.6339 22.3473 13.9222 22.1347 14.1347C21.9222 14.3473 21.6339 14.4667 21.3333 14.4667H10.6667C10.3661 14.4667 10.0778 14.3473 9.86528 14.1347C9.65274 13.9222 9.53333 13.6339 9.53333 13.3334C9.53333 13.0328 9.65274 12.7445 9.86528 12.532C10.0778 12.3194 10.3661 12.2 10.6667 12.2H21.3333ZM22.4667 18.6667C22.4667 18.9673 22.3473 19.2555 22.1347 19.4681C21.9222 19.6806 21.6339 19.8 21.3333 19.8H10.6667C10.3661 19.8 10.0778 19.6806 9.86528 19.4681C9.65274 19.2555 9.53333 18.9673 9.53333 18.6667C9.53333 18.3661 9.65274 18.0779 9.86528 17.8653C10.0778 17.6528 10.3661 17.5334 10.6667 17.5334H21.3333C21.6339 17.5334 21.9222 17.6528 22.1347 17.8653C22.3473 18.0779 22.4667 18.3661 22.4667 18.6667Z" fill="white" stroke="#D398E7" stroke-width="0.4"/>
</g>
<defs>
<clipPath id="clip0_4280_2148">
<rect width="32" height="32" fill="white"/>
</clipPath>
</defs>
</svg>
