<svg width="32" height="32" viewBox="0 0 32 32" fill="none" xmlns="http://www.w3.org/2000/svg">
<path d="M31.5014 13.7013L29.9061 10.7213C29.321 9.62712 28.0402 9.11001 26.8527 9.49518L15.9948 13.0363L5.13558 9.49518C3.94544 9.10868 2.66733 9.62712 2.08225 10.7213L0.501611 13.6734C-0.0474823 14.5863 -0.151437 15.6831 0.217735 16.6827C0.585574 17.6823 1.37856 18.4486 2.38878 18.7858L2.66866 18.8791L2.66067 23.705C2.66067 26.2918 4.30661 28.5802 6.76154 29.3985L13.2414 31.5589C14.125 31.8534 15.0526 32 15.9815 32C16.9104 32 17.838 31.8534 18.7216 31.5589L25.2068 29.3971C27.663 28.5788 29.3143 26.2932 29.3157 23.7103V18.8791L29.5982 18.7844C30.6084 18.4473 31.4014 17.6809 31.7692 16.6814C32.1384 15.6818 32.0345 14.585 31.5014 13.7013ZM1.46785 16.2216C1.23995 15.6032 1.30393 14.9248 1.6611 14.3317L3.2564 11.3517C3.47497 10.9425 3.89612 10.7027 4.33993 10.7027C4.46654 10.7027 4.59448 10.7226 4.7211 10.764L15.0086 14.1185L12.3804 18.963C11.8646 19.8227 10.8397 20.2038 9.89216 19.8826L2.81127 17.5223C2.18621 17.3144 1.69709 16.84 1.46785 16.2229V16.2216ZM15.3071 30.6366C14.7487 30.586 14.1969 30.4713 13.6638 30.2927L7.18402 28.1324C5.27419 27.4953 3.99208 25.7174 3.99341 23.705L4.00008 19.3229L9.46968 21.1461C9.83486 21.2674 10.2067 21.326 10.5719 21.326C11.758 21.326 12.8842 20.7089 13.5372 19.6214L15.3151 16.3468L15.3071 30.6366ZM27.9829 23.7103C27.9829 25.7187 26.6968 27.4953 24.7856 28.131L18.3005 30.2927C17.7621 30.4727 17.2036 30.5873 16.6399 30.6379L16.6479 16.3002L18.4631 19.6454C19.1028 20.7143 20.2263 21.326 21.4111 21.326C21.7776 21.326 22.1508 21.2674 22.516 21.1461L27.9829 19.3242V23.7103ZM30.5191 16.2216C30.2899 16.8386 29.8008 17.3118 29.1757 17.521L22.0948 19.8813C21.1419 20.1998 20.121 19.8187 19.6212 18.9857L16.9797 14.1172L27.2672 10.7626C27.8376 10.5747 28.452 10.8266 28.7332 11.3504L30.3445 14.3597C30.6857 14.9248 30.7497 15.6032 30.5218 16.2202L30.5191 16.2216ZM6.34305 7.79726C6.08583 7.53604 6.0885 7.11222 6.35105 6.855L12.7243 0.581746C13.4973 -0.193915 14.766 -0.195248 15.547 0.585744L18.0593 3.09798C18.8163 2.42094 20.0784 2.44093 20.8087 3.17128L24.4791 6.84034C24.739 7.10023 24.739 7.52271 24.4791 7.7826C24.2192 8.04248 23.7967 8.04248 23.5369 7.7826L19.8665 4.11353C19.6066 3.85365 19.1841 3.85365 18.9242 4.11353L13.1281 9.80438C12.9975 9.93232 12.8282 9.99629 12.6603 9.99629C12.487 9.99629 12.3151 9.92966 12.1858 9.79771C11.9286 9.53516 11.9326 9.11268 12.1938 8.85546L17.1063 4.03224L14.6034 1.52933C14.3435 1.26945 13.9211 1.26945 13.6612 1.52933L7.28531 7.80392C7.1547 7.93186 6.98677 7.99584 6.81751 7.99584C6.64559 7.99584 6.47233 7.9292 6.34305 7.79726Z" fill="white"/>
</svg>
