<svg width="23" height="23" viewBox="0 0 23 23" fill="none" xmlns="http://www.w3.org/2000/svg">
<path fill-rule="evenodd" clip-rule="evenodd" d="M19.9544 3.04572H3.37336C1.80738 3.04572 0.609863 4.24323 0.609863 5.80922V16.8632C0.609863 18.4292 1.80738 19.6267 3.37336 19.6267H19.9544C21.5204 19.6267 22.7179 18.4292 22.7179 16.8632V5.80922C22.7179 4.24323 21.5204 3.04572 19.9544 3.04572ZM3.37336 4.88806H19.9544C20.5071 4.88806 20.8755 5.25653 20.8755 5.80923V8.57273H2.4522V5.80923C2.4522 5.25653 2.82066 4.88806 3.37336 4.88806ZM3.37336 17.7844H19.9544C20.5071 17.7844 20.8755 17.4159 20.8755 16.8632V10.4151H2.4522V16.8632C2.4522 17.4159 2.82066 17.7844 3.37336 17.7844Z" fill="black"/>
<mask id="mask0_154_211" style="mask-type:luminance" maskUnits="userSpaceOnUse" x="0" y="3" width="23" height="17">
<path fill-rule="evenodd" clip-rule="evenodd" d="M19.9544 3.04572H3.37336C1.80738 3.04572 0.609863 4.24323 0.609863 5.80922V16.8632C0.609863 18.4292 1.80738 19.6267 3.37336 19.6267H19.9544C21.5204 19.6267 22.7179 18.4292 22.7179 16.8632V5.80922C22.7179 4.24323 21.5204 3.04572 19.9544 3.04572ZM3.37336 4.88806H19.9544C20.5071 4.88806 20.8755 5.25653 20.8755 5.80923V8.57273H2.4522V5.80923C2.4522 5.25653 2.82066 4.88806 3.37336 4.88806ZM3.37336 17.7844H19.9544C20.5071 17.7844 20.8755 17.4159 20.8755 16.8632V10.4151H2.4522V16.8632C2.4522 17.4159 2.82066 17.7844 3.37336 17.7844Z" fill="white"/>
</mask>
<g mask="url(#mask0_154_211)">
<rect x="0.609863" y="0.282227" width="22.108" height="22.108" fill="white"/>
</g>
</svg>
