<svg width="23" height="23" viewBox="0 0 23 23" fill="none" xmlns="http://www.w3.org/2000/svg">
<path fill-rule="evenodd" clip-rule="evenodd" d="M2.59751 7.85128L10.888 1.41043C11.2565 1.13439 11.7171 1.13439 11.9934 1.41043L20.2839 7.85128C20.5603 8.0353 20.6524 8.31134 20.6524 8.58738V18.7087C20.6524 20.2729 19.4549 21.4691 17.8889 21.4691H4.99255C3.42656 21.4691 2.22905 20.2729 2.22905 18.7087V8.58738C2.22905 8.31134 2.32116 8.0353 2.59751 7.85128ZM9.59838 12.2679V19.6288H13.283V12.2679H9.59838ZM4.99254 19.6288C4.43984 19.6288 4.07137 19.2608 4.07137 18.7087V9.04742L11.4407 3.34266L18.8101 9.04742V18.7087C18.8101 19.2608 18.4416 19.6288 17.8889 19.6288H15.1254V11.3477C15.1254 10.7956 14.7569 10.4276 14.2042 10.4276H8.67721C8.12451 10.4276 7.75604 10.7956 7.75604 11.3477V19.6288H4.99254Z" fill="black"/>
<mask id="mask0_153_523" style="mask-type:luminance" maskUnits="userSpaceOnUse" x="2" y="1" width="19" height="21">
<path fill-rule="evenodd" clip-rule="evenodd" d="M2.59751 7.85128L10.888 1.41043C11.2565 1.13439 11.7171 1.13439 11.9934 1.41043L20.2839 7.85128C20.5603 8.0353 20.6524 8.31134 20.6524 8.58738V18.7087C20.6524 20.2729 19.4549 21.4691 17.8889 21.4691H4.99255C3.42656 21.4691 2.22905 20.2729 2.22905 18.7087V8.58738C2.22905 8.31134 2.32116 8.0353 2.59751 7.85128ZM9.59838 12.2679V19.6288H13.283V12.2679H9.59838ZM4.99254 19.6288C4.43984 19.6288 4.07137 19.2608 4.07137 18.7087V9.04742L11.4407 3.34266L18.8101 9.04742V18.7087C18.8101 19.2608 18.4416 19.6288 17.8889 19.6288H15.1254V11.3477C15.1254 10.7956 14.7569 10.4276 14.2042 10.4276H8.67721C8.12451 10.4276 7.75604 10.7956 7.75604 11.3477V19.6288H4.99254Z" fill="white"/>
</mask>
<g mask="url(#mask0_153_523)">
<rect width="22.108" height="22.108" transform="matrix(-1 0 0 1 22.4947 0.282227)" fill="white"/>
</g>
</svg>
