<svg width="19" height="19" viewBox="0 0 19 19" fill="none" xmlns="http://www.w3.org/2000/svg">
<path d="M0.973339 9.58352C0.973339 4.64594 4.96543 0.618838 9.93802 0.618838C14.8756 0.618838 18.9027 4.64594 18.9027 9.58352C18.9027 14.5561 14.8756 18.5482 9.93802 18.5482C4.96543 18.5482 0.973339 14.5561 0.973339 9.58352ZM13.9651 8.04272C14.3503 7.65752 14.3503 7.06221 13.9651 6.677C13.5799 6.2918 12.9846 6.2918 12.5994 6.677L8.81744 10.459L7.24162 8.91818C6.85641 8.53297 6.2611 8.53297 5.8759 8.91818C5.4907 9.30338 5.4907 9.89869 5.8759 10.2839L8.11707 12.5251C8.50227 12.9103 9.09759 12.9103 9.48279 12.5251L13.9651 8.04272Z" fill="#5DC674"/>
</svg>
