<svg width="15" height="15" viewBox="0 0 15 15" fill="none" xmlns="http://www.w3.org/2000/svg">
<path d="M3.34375 0.75H4.53125V1.34375H10.4688V0.75H11.6562V1.34375H14.0312V14.4062H0.96875V1.34375H3.34375V0.75ZM2.15625 2.53125V3.71875H12.8438V2.53125H11.6562V3.125H10.4688V2.53125H4.53125V3.125H3.34375V2.53125H2.15625ZM2.15625 4.90625V13.2188H12.8438V4.90625H2.15625ZM5.71875 6.09375H6.90625V7.28125H5.71875V6.09375ZM8.09375 6.09375H9.28125V7.28125H8.09375V6.09375ZM10.4688 6.09375H11.6562V7.28125H10.4688V6.09375ZM3.34375 8.46875H4.53125V9.65625H3.34375V8.46875ZM5.71875 8.46875H6.90625V9.65625H5.71875V8.46875ZM8.09375 8.46875H9.28125V9.65625H8.09375V8.46875ZM10.4688 8.46875H11.6562V9.65625H10.4688V8.46875ZM3.34375 10.8438H4.53125V12.0312H3.34375V10.8438ZM5.71875 10.8438H6.90625V12.0312H5.71875V10.8438ZM8.09375 10.8438H9.28125V12.0312H8.09375V10.8438Z" fill="white"/>
</svg>
