<svg width="70" height="192" viewBox="0 0 70 192" fill="none" xmlns="http://www.w3.org/2000/svg">
<path opacity="0.2" d="M-118.29 71.2174C-113.403 52.9785 -103.218 36.5984 -89.0211 24.1485C-74.8247 11.6986 -57.2552 3.73795 -38.5345 1.27332C-19.8138 -1.19131 -0.782673 1.95075 16.1523 10.3022C33.0873 18.6536 47.1655 31.8392 56.6066 48.1917C66.0477 64.5443 70.4278 83.3292 69.1928 102.171C67.9578 121.013 61.1634 139.065 49.6686 154.046C38.1738 169.026 22.4949 180.261 4.61477 186.331C-13.2654 192.4 -32.5439 193.031 -50.7827 188.144L-45.3091 167.716C-31.1105 171.521 -16.1026 171.03 -2.18316 166.305C11.7362 161.58 23.9419 152.833 32.8904 141.171C41.8389 129.509 47.1283 115.456 48.0897 100.788C49.0511 86.1198 45.6413 71.4961 38.2915 58.766C30.9418 46.0358 19.9822 35.771 6.7986 29.2696C-6.38497 22.7682 -21.2004 20.3221 -35.7741 22.2408C-50.3478 24.1595 -64.0254 30.3567 -75.077 40.0487C-86.1287 49.7408 -94.0581 62.4924 -97.8626 76.691L-118.29 71.2174Z" fill="url(#paint0_linear_4280_2011)"/>
<defs>
<linearGradient id="paint0_linear_4280_2011" x1="66.1441" y1="120.636" x2="-118.29" y2="71.2174" gradientUnits="userSpaceOnUse">
<stop stop-color="#E0ECEF"/>
<stop offset="1" stop-color="#157D99"/>
</linearGradient>
</defs>
</svg>
