<svg width="49" height="177" viewBox="0 0 49 177" fill="none" xmlns="http://www.w3.org/2000/svg">
<path opacity="0.2" d="M53.5055 176.638C36.5491 168.33 22.4372 155.18 12.9542 138.852C3.47113 122.524 -0.957056 103.75 0.229597 84.9053C1.41624 66.0604 8.16441 47.9905 19.6207 32.9808C31.0771 17.9711 46.7271 6.69564 64.5916 0.580318L71.0006 19.3026C56.8389 24.1504 44.4329 33.0887 35.3512 44.9872C26.2695 56.8858 20.92 71.2101 19.9794 86.1489C19.0387 101.088 22.549 115.97 30.0664 128.914C37.5838 141.858 48.7707 152.281 62.2123 158.867L53.5055 176.638Z" fill="url(#paint0_linear_4280_2010)"/>
<defs>
<linearGradient id="paint0_linear_4280_2010" x1="56.9364" y1="3.57487" x2="134.086" y2="178.235" gradientUnits="userSpaceOnUse">
<stop stop-color="#E0ECEF"/>
<stop offset="1" stop-color="#157D99"/>
</linearGradient>
</defs>
</svg>
