<svg width="23" height="23" viewBox="0 0 23 23" fill="none" xmlns="http://www.w3.org/2000/svg">
<path fill-rule="evenodd" clip-rule="evenodd" d="M2.59759 7.85128L10.8881 1.41043C11.2566 1.13439 11.7171 1.13439 11.9935 1.41043L20.284 7.85128C20.5603 8.0353 20.6525 8.31134 20.6525 8.58738V18.7087C20.6525 20.2729 19.4549 21.4691 17.889 21.4691H4.99262C3.42664 21.4691 2.22912 20.2729 2.22912 18.7087V8.58738C2.22912 8.31134 2.32124 8.0353 2.59759 7.85128ZM9.59841 12.2679V19.6288H13.2831V12.2679H9.59841ZM4.99257 19.6288C4.43987 19.6288 4.07141 19.2608 4.07141 18.7087V9.04742L11.4407 3.34266L18.8101 9.04742V18.7087C18.8101 19.2608 18.4416 19.6288 17.8889 19.6288H15.1254V11.3477C15.1254 10.7956 14.7569 10.4276 14.2042 10.4276H8.67724C8.12454 10.4276 7.75607 10.7956 7.75607 11.3477V19.6288H4.99257Z" fill="black"/>
<mask id="mask0_154_218" style="mask-type:luminance" maskUnits="userSpaceOnUse" x="2" y="1" width="19" height="21">
<path fill-rule="evenodd" clip-rule="evenodd" d="M2.59759 7.85128L10.8881 1.41043C11.2566 1.13439 11.7171 1.13439 11.9935 1.41043L20.284 7.85128C20.5603 8.0353 20.6525 8.31134 20.6525 8.58738V18.7087C20.6525 20.2729 19.4549 21.4691 17.889 21.4691H4.99262C3.42664 21.4691 2.22912 20.2729 2.22912 18.7087V8.58738C2.22912 8.31134 2.32124 8.0353 2.59759 7.85128ZM9.59841 12.2679V19.6288H13.2831V12.2679H9.59841ZM4.99257 19.6288C4.43987 19.6288 4.07141 19.2608 4.07141 18.7087V9.04742L11.4407 3.34266L18.8101 9.04742V18.7087C18.8101 19.2608 18.4416 19.6288 17.8889 19.6288H15.1254V11.3477C15.1254 10.7956 14.7569 10.4276 14.2042 10.4276H8.67724C8.12454 10.4276 7.75607 10.7956 7.75607 11.3477V19.6288H4.99257Z" fill="white"/>
</mask>
<g mask="url(#mask0_154_218)">
<rect width="22.108" height="22.108" transform="matrix(-1 0 0 1 22.4948 0.282227)" fill="url(#paint0_linear_154_218)"/>
</g>
<defs>
<linearGradient id="paint0_linear_154_218" x1="0" y1="0" x2="18.7096" y2="24.6839" gradientUnits="userSpaceOnUse">
<stop stop-color="#157D99"/>
<stop offset="1" stop-color="#70A1E5"/>
</linearGradient>
</defs>
</svg>
