<svg width="222" height="223" viewBox="0 0 222 223" fill="none" xmlns="http://www.w3.org/2000/svg">
<path d="M105.363 147.672C100.594 152.441 93.2227 152.441 88.4531 147.672L60.7031 119.922C55.9336 115.152 55.9336 107.781 60.7031 103.012C65.4727 98.2422 72.8438 98.2422 77.6133 103.012L97.125 122.09L143.953 75.2617C148.723 70.4922 156.094 70.4922 160.863 75.2617C165.633 80.0312 165.633 87.4023 160.863 92.1719L105.363 147.672ZM222 111.25C222 172.82 172.137 222.25 111 222.25C49.4297 222.25 0 172.82 0 111.25C0 50.1133 49.4297 0.25 111 0.25C172.137 0.25 222 50.1133 222 111.25ZM111 21.0625C61.1367 21.0625 20.8125 61.8203 20.8125 111.25C20.8125 161.113 61.1367 201.438 111 201.438C160.43 201.438 201.188 161.113 201.188 111.25C201.188 61.8203 160.43 21.0625 111 21.0625Z" fill="#157D99"/>
</svg>
