<svg width="23" height="23" viewBox="0 0 23 23" fill="none" xmlns="http://www.w3.org/2000/svg">
<path fill-rule="evenodd" clip-rule="evenodd" d="M15.7993 6.73041C15.7993 4.15114 13.7728 2.12457 11.1935 2.12457C8.61424 2.12457 6.58767 4.15114 6.58767 6.73041C6.58767 9.30968 8.61424 11.3362 11.1935 11.3362C13.7728 11.3362 15.7993 9.30968 15.7993 6.73041ZM2.903 17.7844V19.6268C2.903 20.1795 3.27147 20.5479 3.82417 20.5479C4.37687 20.5479 4.74533 20.1795 4.74533 19.6268V17.7844C4.74533 16.2184 5.94285 15.0209 7.50883 15.0209H14.8782C16.4442 15.0209 17.6417 16.2184 17.6417 17.7844V19.6268C17.6417 20.1795 18.0101 20.5479 18.5628 20.5479C19.1155 20.5479 19.484 20.1795 19.484 19.6268V17.7844C19.484 15.2051 17.4574 13.1786 14.8782 13.1786H7.50883C4.92957 13.1786 2.903 15.2051 2.903 17.7844ZM11.1935 9.49391C12.7595 9.49391 13.957 8.29639 13.957 6.73041C13.957 5.16442 12.7595 3.96691 11.1935 3.96691C9.62752 3.96691 8.43 5.16442 8.43 6.73041C8.43 8.29639 9.62752 9.49391 11.1935 9.49391Z" fill="black"/>
<mask id="mask0_154_224" style="mask-type:luminance" maskUnits="userSpaceOnUse" x="2" y="2" width="18" height="19">
<path fill-rule="evenodd" clip-rule="evenodd" d="M15.7993 6.73041C15.7993 4.15114 13.7728 2.12457 11.1935 2.12457C8.61424 2.12457 6.58767 4.15114 6.58767 6.73041C6.58767 9.30968 8.61424 11.3362 11.1935 11.3362C13.7728 11.3362 15.7993 9.30968 15.7993 6.73041ZM2.903 17.7844V19.6268C2.903 20.1795 3.27147 20.5479 3.82417 20.5479C4.37687 20.5479 4.74533 20.1795 4.74533 19.6268V17.7844C4.74533 16.2184 5.94285 15.0209 7.50883 15.0209H14.8782C16.4442 15.0209 17.6417 16.2184 17.6417 17.7844V19.6268C17.6417 20.1795 18.0101 20.5479 18.5628 20.5479C19.1155 20.5479 19.484 20.1795 19.484 19.6268V17.7844C19.484 15.2051 17.4574 13.1786 14.8782 13.1786H7.50883C4.92957 13.1786 2.903 15.2051 2.903 17.7844ZM11.1935 9.49391C12.7595 9.49391 13.957 8.29639 13.957 6.73041C13.957 5.16442 12.7595 3.96691 11.1935 3.96691C9.62752 3.96691 8.43 5.16442 8.43 6.73041C8.43 8.29639 9.62752 9.49391 11.1935 9.49391Z" fill="white"/>
</mask>
<g mask="url(#mask0_154_224)">
<rect width="22.108" height="22.108" transform="matrix(-1 0 0 1 22.2476 0.282227)" fill="url(#paint0_linear_154_224)"/>
</g>
<defs>
<linearGradient id="paint0_linear_154_224" x1="0" y1="0" x2="18.7096" y2="24.6839" gradientUnits="userSpaceOnUse">
<stop stop-color="#157D99"/>
<stop offset="1" stop-color="#70A1E5"/>
</linearGradient>
</defs>
</svg>
