<svg width="14" height="11" viewBox="0 0 14 11" fill="none" xmlns="http://www.w3.org/2000/svg">
<path d="M3 4.31006C4.65625 4.31006 6 5.65381 6 7.31006C6 8.99756 4.65625 10.3101 3 10.3101C1.3125 10.3101 0 8.99756 0 7.31006V4.31006C0 2.12256 1.78125 0.310059 4 0.310059C4.53125 0.310059 5 0.778809 5 1.31006C5 1.87256 4.53125 2.31006 4 2.31006C2.875 2.31006 2 3.21631 2 4.31006V4.49756C2.3125 4.40381 2.625 4.31006 3 4.31006ZM11 4.31006C12.6562 4.31006 14 5.65381 14 7.31006C14 8.99756 12.6562 10.3101 11 10.3101C9.3125 10.3101 8 8.99756 8 7.31006V4.31006C8 2.12256 9.78125 0.310059 12 0.310059C12.5312 0.310059 13 0.778809 13 1.31006C13 1.87256 12.5312 2.31006 12 2.31006C10.875 2.31006 10 3.21631 10 4.31006V4.49756C10.3125 4.40381 10.625 4.31006 11 4.31006Z" fill="black"/>
</svg>
