<svg width="20" height="20" viewBox="0 0 20 20" fill="none" xmlns="http://www.w3.org/2000/svg">
<path d="M13.0832 14.4167C13.4165 14.7501 13.4165 15.2501 13.0832 15.5834C12.9165 15.7501 12.7498 15.8334 12.4998 15.8334C12.2498 15.8334 12.0832 15.7501 11.9165 15.5834L6.9165 10.5834C6.58317 10.2501 6.58317 9.75008 6.9165 9.41675L11.9165 4.41675C12.2498 4.08341 12.7498 4.08341 13.0832 4.41675C13.4165 4.75008 13.4165 5.25008 13.0832 5.58341L8.6665 10.0001L13.0832 14.4167Z" fill="black"/>
<mask id="mask0_241_543" style="mask-type:luminance" maskUnits="userSpaceOnUse" x="6" y="4" width="8" height="12">
<path d="M13.0832 14.4167C13.4165 14.7501 13.4165 15.2501 13.0832 15.5834C12.9165 15.7501 12.7498 15.8334 12.4998 15.8334C12.2498 15.8334 12.0832 15.7501 11.9165 15.5834L6.9165 10.5834C6.58317 10.2501 6.58317 9.75008 6.9165 9.41675L11.9165 4.41675C12.2498 4.08341 12.7498 4.08341 13.0832 4.41675C13.4165 4.75008 13.4165 5.25008 13.0832 5.58341L8.6665 10.0001L13.0832 14.4167Z" fill="white"/>
</mask>
<g mask="url(#mask0_241_543)">
<rect width="20" height="20" fill="url(#paint0_linear_241_543)"/>
</g>
<defs>
<linearGradient id="paint0_linear_241_543" x1="0" y1="0" x2="16.9256" y2="22.3303" gradientUnits="userSpaceOnUse">
<stop stop-color="#157D99"/>
<stop offset="1" stop-color="#70A1E5"/>
</linearGradient>
</defs>
</svg>
