<svg width="18" height="18" viewBox="0 0 18 18" fill="none" xmlns="http://www.w3.org/2000/svg">
<path d="M0.281251 8.75C0.281251 7.16797 0.703126 5.72656 1.47656 4.39062C2.25 3.05469 3.30469 1.96484 4.64063 1.19141C5.97656 0.417968 7.45313 0.0312491 9 0.0312492C10.582 0.0312494 12.0234 0.417968 13.3594 1.19141C14.6953 1.96484 15.7852 3.05469 16.5586 4.39062C17.332 5.72656 17.7188 7.16797 17.7188 8.75C17.7188 10.2969 17.332 11.7734 16.5586 13.1094C15.7852 14.4453 14.6953 15.5 13.3594 16.2734C12.0234 17.0469 10.582 17.4687 9 17.4687C7.45313 17.4687 5.97656 17.0469 4.64063 16.2734C3.30469 15.5 2.25 14.4453 1.47656 13.1094C0.703126 11.7734 0.281251 10.2969 0.281251 8.75ZM16.0313 8.75C16.0313 7.48437 15.7148 6.28906 15.082 5.23437C14.4492 4.14453 13.6055 3.30078 12.5156 2.66797C11.4609 2.03516 10.2656 1.71875 9 1.71875C7.73438 1.71875 6.57422 2.03516 5.48438 2.66797C4.42969 3.30078 3.55078 4.14453 2.91797 5.23437C2.28516 6.28906 1.96875 7.48437 1.96875 8.75C1.96875 10.0156 2.28516 11.1758 2.91797 12.2656C3.55078 13.3203 4.42969 14.1992 5.48438 14.832C6.57422 15.4648 7.73438 15.7812 9 15.7812C10.2656 15.7812 11.4609 15.4648 12.5156 14.832C13.6055 14.1992 14.4492 13.3203 15.082 12.2656C15.7148 11.1758 16.0313 10.0156 16.0313 8.75ZM13.5 8.04687C13.5 7.90625 13.4648 7.80078 13.3945 7.73047C13.3242 7.66016 13.2188 7.625 13.0781 7.625L9 7.625L9 5.26953C9 5.05859 8.92969 4.95312 8.75391 4.88281C8.57813 4.8125 8.40234 4.84766 8.26172 4.98828L4.78125 8.43359C4.71094 8.50391 4.67578 8.60937 4.67578 8.75C4.67578 8.85547 4.71094 8.96094 4.78125 9.06641L8.29688 12.5469C8.4375 12.6523 8.57813 12.6875 8.75391 12.6172C8.92969 12.5469 9 12.4062 9 12.2305L9 9.875L13.0781 9.875C13.2188 9.875 13.3242 9.80469 13.3945 9.73437C13.4648 9.66406 13.5 9.55859 13.5 9.45312L13.5 8.04687Z" fill="url(#paint0_linear_4675_547)"/>
<defs>
<linearGradient id="paint0_linear_4675_547" x1="18" y1="18" x2="2.76692" y2="-2.09724" gradientUnits="userSpaceOnUse">
<stop stop-color="#157D99"/>
<stop offset="1" stop-color="#70A1E5"/>
</linearGradient>
</defs>
</svg>
