<svg width="32" height="32" viewBox="0 0 32 32" fill="none" xmlns="http://www.w3.org/2000/svg">
<path d="M31.9427 26.6229L30.5068 17.2899C30.2535 15.6407 29.1282 14.2434 27.5709 13.6434C27.2296 13.5101 26.8416 13.6821 26.7096 14.0261C26.5776 14.3701 26.7483 14.7554 27.0923 14.8874C28.2042 15.3154 29.0082 16.314 29.1895 17.4926L29.9855 22.6657H2.01199L2.80796 17.4926C2.98929 16.314 3.79325 15.3154 4.90521 14.8874C5.24919 14.7541 5.41985 14.3687 5.28786 14.0261C5.15453 13.6821 4.76788 13.5141 4.42656 13.6434C2.87062 14.2434 1.744 15.6407 1.49068 17.2899L0.0547415 26.6229C-0.15325 27.9708 0.237401 29.3361 1.12536 30.3721C2.01333 31.4054 3.30394 32 4.66655 32H27.3309C28.6935 32 29.9855 31.4067 30.8735 30.3721C31.7601 29.3374 32.1494 27.9708 31.9427 26.6229ZM30.1855 23.9723V23.9777C30.1855 23.9777 30.1802 23.975 30.1855 23.9723ZM1.81067 23.9723C1.81067 23.9723 1.816 23.9763 1.81067 23.9777V23.9723ZM9.41302 30.6654H4.66655C3.69326 30.6654 2.77063 30.2414 2.13732 29.5028C1.50268 28.7628 1.22536 27.7882 1.37335 26.8256L1.808 23.999H10.2503L9.41302 30.6654ZM10.757 30.6654L11.5929 23.999H20.4032L21.2392 30.6654H10.7556H10.757ZM29.8602 29.5028C29.2255 30.2414 28.3042 30.6654 27.3309 30.6654H22.5845L21.7485 23.999H30.1922L30.6268 26.8256C30.7748 27.7882 30.4948 28.7628 29.8615 29.5028H29.8602ZM13.6515 19.7085C14.3021 20.3445 15.1554 20.6605 16.0074 20.6605C16.85 20.6605 17.69 20.3498 18.322 19.7312L22.5978 15.9327C24.3604 14.1701 25.3324 11.8262 25.3324 9.33294C25.3324 6.83972 24.3604 4.49715 22.5978 2.73322C20.8365 0.970626 18.4926 0 15.9994 0C13.5062 0 11.1636 0.970626 9.39969 2.73322C7.63576 4.49581 6.66647 6.83972 6.66647 9.33294C6.66647 11.8262 7.63709 14.1687 9.42902 15.9593L13.6515 19.7085ZM10.341 3.67585C11.8516 2.16524 13.8608 1.33328 15.9981 1.33328C18.1353 1.33328 20.1432 2.16524 21.6538 3.67585C23.1658 5.18645 23.9977 7.1957 23.9977 9.33294C23.9977 11.4702 23.1658 13.4781 21.6832 14.962L17.4127 18.7552C16.6327 19.5192 15.3634 19.5179 14.5595 18.7326L10.341 14.9887C7.22244 11.8702 7.22244 6.79438 10.341 3.67585ZM15.9981 13.3061C18.1953 13.3061 19.9846 11.5182 19.9846 9.31961C19.9846 7.12104 18.1953 5.33311 15.9981 5.33311C13.8008 5.33311 12.0116 7.12104 12.0116 9.31961C12.0116 11.5182 13.7995 13.3061 15.9981 13.3061ZM15.9981 6.66639C17.462 6.66639 18.6513 7.85701 18.6513 9.31961C18.6513 10.7822 17.4607 11.9728 15.9981 11.9728C14.5355 11.9728 13.3449 10.7822 13.3449 9.31961C13.3449 7.85701 14.5355 6.66639 15.9981 6.66639Z" fill="white"/>
</svg>
