<svg width="37" height="32" viewBox="0 0 37 32" fill="none" xmlns="http://www.w3.org/2000/svg">
<path d="M29.7143 0H11.4286C7.63429 0 4.57143 3.06286 4.57143 6.85714V20.5714C4.57143 24.3657 7.63429 27.4286 11.4286 27.4286H29.7143C33.5086 27.4286 36.5714 24.3657 36.5714 20.5714V6.85714C36.5714 3.06286 33.5086 0 29.7143 0ZM29.7143 1.52381C31.1619 1.52381 32.4876 2.10286 33.4476 3.04762L24.3505 12.1448C22.2629 14.2324 18.8952 14.2324 16.8076 12.1448L7.69524 3.04762C8.65524 2.10286 9.98095 1.52381 11.4286 1.52381H29.7143ZM35.0476 20.5714C35.0476 23.5124 32.6552 25.9048 29.7143 25.9048H11.4286C8.48762 25.9048 6.09524 23.5124 6.09524 20.5714V6.85714C6.09524 5.91238 6.33905 5.04381 6.76571 4.26667L15.7257 13.2267C17.0667 14.5676 18.819 15.2381 20.5714 15.2381C22.3238 15.2381 24.0762 14.5676 25.4171 13.2267L34.3771 4.26667C34.8038 5.02857 35.0476 5.91238 35.0476 6.85714V20.5714ZM27.4286 31.2381C27.4286 31.6648 27.0933 32 26.6667 32H6.85714C3.0781 32 0 28.9219 0 25.1429V8.38095C0 7.95429 0.335238 7.61905 0.761905 7.61905C1.18857 7.61905 1.52381 7.95429 1.52381 8.38095V25.1429C1.52381 28.0838 3.91619 30.4762 6.85714 30.4762H26.6667C27.0933 30.4762 27.4286 30.8114 27.4286 31.2381Z" fill="white"/>
</svg>
