<svg width="32" height="32" viewBox="0 0 32 32" fill="none" xmlns="http://www.w3.org/2000/svg">
<path d="M26 2.66667H8.86533C8.11333 1.096 6.52133 0 4.66667 0C2.09333 0 0 2.09333 0 4.66667V26C0 29.308 2.692 32 6 32H26C29.308 32 32 29.308 32 26V8.66667C32 5.35867 29.308 2.66667 26 2.66667ZM30.5987 8H22C20.8973 8 20 7.10267 20 6V4H26C28.344 4 30.272 5.744 30.5987 8ZM1.33333 4.66667C1.33333 2.828 2.828 1.33333 4.66667 1.33333C6.50533 1.33333 8 2.828 8 4.66667V22C8 23.8387 6.50533 25.3333 4.66667 25.3333C2.828 25.3333 1.33333 23.8387 1.33333 22V4.66667ZM26 30.6667H6C3.42667 30.6667 1.33333 28.5733 1.33333 26V25.256C2.18133 26.124 3.36 26.6667 4.66667 26.6667C7.24 26.6667 9.33333 24.5733 9.33333 22V4.66667C9.33333 4.43867 9.29733 4.22 9.26533 4H18.6667V6C18.6667 7.83867 20.1613 9.33333 22 9.33333H30.6667V26C30.6667 28.5733 28.5733 30.6667 26 30.6667ZM21.3333 14.6667C21.3333 15.4027 20.736 16 20 16C19.264 16 18.6667 15.4027 18.6667 14.6667C18.6667 13.9307 19.264 13.3333 20 13.3333C20.736 13.3333 21.3333 13.9307 21.3333 14.6667ZM16 14.6667C16 15.4027 15.4027 16 14.6667 16C13.9307 16 13.3333 15.4027 13.3333 14.6667C13.3333 13.9307 13.9307 13.3333 14.6667 13.3333C15.4027 13.3333 16 13.9307 16 14.6667ZM26.6667 14.6667C26.6667 15.4027 26.0693 16 25.3333 16C24.5973 16 24 15.4027 24 14.6667C24 13.9307 24.5973 13.3333 25.3333 13.3333C26.0693 13.3333 26.6667 13.9307 26.6667 14.6667ZM21.3333 20C21.3333 20.736 20.736 21.3333 20 21.3333C19.264 21.3333 18.6667 20.736 18.6667 20C18.6667 19.264 19.264 18.6667 20 18.6667C20.736 18.6667 21.3333 19.264 21.3333 20ZM16 20C16 20.736 15.4027 21.3333 14.6667 21.3333C13.9307 21.3333 13.3333 20.736 13.3333 20C13.3333 19.264 13.9307 18.6667 14.6667 18.6667C15.4027 18.6667 16 19.264 16 20ZM26.6667 20C26.6667 20.736 26.0693 21.3333 25.3333 21.3333C24.5973 21.3333 24 20.736 24 20C24 19.264 24.5973 18.6667 25.3333 18.6667C26.0693 18.6667 26.6667 19.264 26.6667 20ZM21.3333 25.3333C21.3333 26.0693 20.736 26.6667 20 26.6667C19.264 26.6667 18.6667 26.0693 18.6667 25.3333C18.6667 24.5973 19.264 24 20 24C20.736 24 21.3333 24.5973 21.3333 25.3333ZM16 25.3333C16 26.0693 15.4027 26.6667 14.6667 26.6667C13.9307 26.6667 13.3333 26.0693 13.3333 25.3333C13.3333 24.5973 13.9307 24 14.6667 24C15.4027 24 16 24.5973 16 25.3333ZM26.6667 25.3333C26.6667 26.0693 26.0693 26.6667 25.3333 26.6667C24.5973 26.6667 24 26.0693 24 25.3333C24 24.5973 24.5973 24 25.3333 24C26.0693 24 26.6667 24.5973 26.6667 25.3333Z" fill="white"/>
</svg>
