<svg id="Layer_1" data-name="Layer 1" xmlns="http://www.w3.org/2000/svg" xmlns:xlink="http://www.w3.org/1999/xlink" viewBox="0 0 595.28 364"><defs><style>.cls-1{fill:#262f45;}.cls-2{fill:url(#linear-gradient);}.cls-3{fill:url(#linear-gradient-2);}</style><linearGradient id="linear-gradient" x1="297.39" y1="267.84" x2="340.94" y2="267.84" gradientUnits="userSpaceOnUse"><stop offset="0" stop-color="#009fe3"/><stop offset="1" stop-color="#2d2e83"/></linearGradient><linearGradient id="linear-gradient-2" x1="211.08" y1="133.24" x2="391.95" y2="133.24" xlink:href="#linear-gradient"/></defs><path class="cls-1" d="M218.42,304.26h-3.3V315.1h-.74V304.26h-3.3v-.74h7.34Z"/><path class="cls-1" d="M234.76,315.28h-.21a5.53,5.53,0,0,1-3.89-1.76,6.14,6.14,0,0,1,0-8.48,5.59,5.59,0,0,1,3.89-1.77h.21a5.64,5.64,0,0,1,3.89,1.77,6.19,6.19,0,0,1,0,8.48A5.59,5.59,0,0,1,234.76,315.28ZM234.65,304a5.28,5.28,0,1,0,4.94,5.26A5.17,5.17,0,0,0,234.65,304Z"/><path class="cls-1" d="M273.2,314.33l-.1.1a3.41,3.41,0,0,1-2.2.82h-.09a3.58,3.58,0,0,1-2.27-.79,3,3,0,0,1-1-1.81l.74-.12a2.15,2.15,0,0,0,.77,1.35,2.85,2.85,0,0,0,3.61-.05,2.66,2.66,0,0,0,.81-2.05,2.32,2.32,0,0,0-1-1.82,4.8,4.8,0,0,0-1.83-.74,3.85,3.85,0,0,1-2.11-1,3,3,0,0,1-.94-2.19,2.69,2.69,0,0,1,.89-1.87,3.35,3.35,0,0,1,2.27-.82,3.43,3.43,0,0,1,2.28.84,2.9,2.9,0,0,1,.82,1.25l-.76.12a1.92,1.92,0,0,0-.56-.81,2.76,2.76,0,0,0-3.51-.05,1.94,1.94,0,0,0-.67,1.37,2.18,2.18,0,0,0,.72,1.63,3.31,3.31,0,0,0,1.73.81,4.94,4.94,0,0,1,2.11.87,3.17,3.17,0,0,1,1.29,2.36A3.43,3.43,0,0,1,273.2,314.33Z"/><path class="cls-1" d="M289.79,315.24a3.74,3.74,0,0,1-3.72-3.74v-7.93h.74v7.93a3,3,0,1,0,6,0v-7.93h.74v7.93A3.75,3.75,0,0,1,289.79,315.24Z"/><path class="cls-1" d="M315.78,312.68a5.77,5.77,0,0,1-4.58,2.6H311a5.66,5.66,0,0,1-3.9-1.74,6,6,0,0,1,0-8.4,5.67,5.67,0,0,1,3.9-1.75h.22a5.66,5.66,0,0,1,3.89,1.75,5.13,5.13,0,0,1,.69.85l-.69.32a5,5,0,0,0-4-2.16,5.2,5.2,0,1,0,4,8.22Z"/><path class="cls-1" d="M337.21,312.68a5.1,5.1,0,0,1-.69.86,5.63,5.63,0,0,1-3.89,1.74h-.21a5.7,5.7,0,0,1-3.91-1.74,6.06,6.06,0,0,1,0-8.4,5.71,5.71,0,0,1,3.91-1.75h.21a5.64,5.64,0,0,1,3.89,1.75,4.67,4.67,0,0,1,.69.85l-.69.32a5,5,0,0,0-4-2.16,5.2,5.2,0,1,0,4,8.22Z"/><path class="cls-1" d="M355.83,314.36v.74h-6.75V303.55h6.56v.74h-5.8v5.49h4.44v.76h-4.44v3.82Z"/><path class="cls-1" d="M372.89,314.33l-.1.1a3.46,3.46,0,0,1-2.21.82h-.08a3.59,3.59,0,0,1-2.28-.79,3,3,0,0,1-1-1.81l.74-.12a2.17,2.17,0,0,0,.78,1.35,2.85,2.85,0,0,0,3.61-.05,2.65,2.65,0,0,0,.8-2.05,2.32,2.32,0,0,0-1-1.82,4.68,4.68,0,0,0-1.83-.74,3.85,3.85,0,0,1-2.11-1,3.05,3.05,0,0,1-.94-2.19,2.74,2.74,0,0,1,.89-1.87,3.53,3.53,0,0,1,4.55,0,2.84,2.84,0,0,1,.83,1.25l-.76.12a2.11,2.11,0,0,0-.56-.81,2.76,2.76,0,0,0-3.51-.05,2,2,0,0,0-.68,1.37,2.19,2.19,0,0,0,.73,1.63,3.27,3.27,0,0,0,1.73.81,5,5,0,0,1,2.11.87,3.13,3.13,0,0,1,1.28,2.36A3.42,3.42,0,0,1,372.89,314.33Z"/><path class="cls-1" d="M391,314.33l-.1.1a3.46,3.46,0,0,1-2.21.82h-.08a3.59,3.59,0,0,1-2.28-.79,3,3,0,0,1-1-1.81l.74-.12a2.17,2.17,0,0,0,.78,1.35,2.85,2.85,0,0,0,3.61-.05,2.65,2.65,0,0,0,.8-2.05,2.32,2.32,0,0,0-1-1.82,4.8,4.8,0,0,0-1.83-.74,3.85,3.85,0,0,1-2.11-1,3.05,3.05,0,0,1-.94-2.19,2.74,2.74,0,0,1,.89-1.87,3.36,3.36,0,0,1,2.28-.82,3.42,3.42,0,0,1,2.27.84,2.73,2.73,0,0,1,.82,1.25l-.75.12a2.11,2.11,0,0,0-.56-.81,2.76,2.76,0,0,0-3.51-.05,2,2,0,0,0-.68,1.37,2.19,2.19,0,0,0,.73,1.63,3.27,3.27,0,0,0,1.73.81,5,5,0,0,1,2.1.87,3.17,3.17,0,0,1,1.29,2.36A3.42,3.42,0,0,1,391,314.33Z"/><path class="cls-1" d="M211.16,287.54V241.66a2.2,2.2,0,0,1,2.2-2.2,2.14,2.14,0,0,1,2.12,2.2v45.88a2.07,2.07,0,0,1-2.12,2.12A2.13,2.13,0,0,1,211.16,287.54Zm2.2,8.71a2.2,2.2,0,0,1-2.2-2.2,2.13,2.13,0,0,1,2.2-2.12h28.76a2.18,2.18,0,0,1,2.2,2.12,2.25,2.25,0,0,1-2.2,2.2Z"/><path class="cls-1" d="M255,289.81c-3.86-4.62-5.75-11.81-5.75-22a57,57,0,0,1,1.29-12.94,21.06,21.06,0,0,1,4-9,16.78,16.78,0,0,1,7.12-5.15,25.66,25.66,0,0,1,9.53-1.51,22.16,22.16,0,0,1,9.62,1.81,16.93,16.93,0,0,1,7.12,5.45c3.4,4.7,5.07,11.66,5.07,21.35a55.06,55.06,0,0,1-1.29,12.42,23.9,23.9,0,0,1-4.31,9c-3.64,4.77-9.09,7.19-16.21,7.19C263.85,296.47,258.55,294.28,255,289.81Zm2.88-41.19c-2.88,3.79-4.32,10.07-4.32,19.23s1.59,15.3,4.62,19.24c2.73,3.4,7,5,13,5,5.83,0,10.07-1.82,12.95-5.6,2.95-4,4.54-10.3,4.54-18.63,0-8.63-1.36-14.68-4.16-18.62-2.8-3.78-7.12-5.6-13.33-5.6C264.76,243.63,260.52,245.22,257.87,248.62Z"/><path class="cls-2" d="M298.22,295.87a2.26,2.26,0,0,1-.38-3.11l18.55-24.91L297.84,243a2.25,2.25,0,0,1,.38-3.11,2.16,2.16,0,0,1,3,.46l19.53,26.27a2.15,2.15,0,0,1,0,2.65l-19.53,26.12a2,2,0,0,1-1.67.91A3.17,3.17,0,0,1,298.22,295.87Zm38.84-.53-16-21.2a2.11,2.11,0,0,1,.46-3,2.18,2.18,0,0,1,3,.45l16,21.2a2.36,2.36,0,0,1-.45,3.11,2.66,2.66,0,0,1-1.29.38A2,2,0,0,1,337.06,295.34Zm-15.52-30.66a2.22,2.22,0,0,1-.46-3.11l16-21.27a2.17,2.17,0,0,1,3-.46,2.35,2.35,0,0,1,.45,3.11l-16,21.2a2.14,2.14,0,0,1-1.75.9A2.61,2.61,0,0,1,321.54,264.68Z"/><path class="cls-1" d="M390.51,296.09A2.18,2.18,0,0,1,387.7,295l-19.45-47.62L348.64,295a2.47,2.47,0,0,1-2.05,1.29,1.54,1.54,0,0,1-.83-.16,2.2,2.2,0,0,1-1.21-2.87l21.73-52.47a2.16,2.16,0,0,1,2-1.29,2.1,2.1,0,0,1,2,1.29l21.5,52.47A2.2,2.2,0,0,1,390.51,296.09Zm-12.42-17.33a2.2,2.2,0,0,0-2.2-2.2H360.45a2.2,2.2,0,1,0,0,4.39h15.44A2.19,2.19,0,0,0,378.09,278.76Z"/><path class="cls-3" d="M348.18,42.81H254.86a43.78,43.78,0,0,0-43.78,43.78V179.9a43.78,43.78,0,0,0,43.78,43.78h93.32A43.77,43.77,0,0,0,392,179.9V86.59A43.77,43.77,0,0,0,348.18,42.81ZM259.59,181.06a3.9,3.9,0,1,1-7.79,0V149.64a3.9,3.9,0,0,1,7.79,0Zm60.93,0a3.9,3.9,0,1,1-7.79,0V137.89h-57.1a3.94,3.94,0,0,1-3.83-4V86.53a3.9,3.9,0,1,1,7.79,0V130h57.1a3.94,3.94,0,0,1,3.83,4Zm0-63.11a3.9,3.9,0,0,1-7.79,0V86.53a3.9,3.9,0,1,1,7.79,0Zm30.71,34.11a2.6,2.6,0,0,1-.07.56,3,3,0,0,1,.07.6v28.35c0,1.85-1.87,3.45-4,3.45s-4.18-1.6-4.18-3.45V153.22a3,3,0,0,1,.07-.6,2.6,2.6,0,0,1-.07-.56V123.71c0-2,1.87-3.57,4.18-3.57a3.87,3.87,0,0,1,4,3.57Zm0-38.67c0,1.85-1.87,3.45-4,3.45s-4.18-1.6-4.18-3.45V85.05c0-2,1.87-3.58,4.18-3.58a3.87,3.87,0,0,1,4,3.58Z"/></svg>