<svg id="Layer_1" data-name="Layer 1" xmlns="http://www.w3.org/2000/svg" viewBox="0 0 595.28 364"><defs><style>.cls-1{fill:#fff;}</style></defs><path class="cls-1" d="M252,218.79h-4.26v14h-.95v-14h-4.26v-1H252Z"/><path class="cls-1" d="M273.12,233h-.28a7.22,7.22,0,0,1-5-2.27,7.94,7.94,0,0,1,0-11,7.19,7.19,0,0,1,5-2.28h.28a7.27,7.27,0,0,1,5,2.28,8,8,0,0,1,0,11A7.3,7.3,0,0,1,273.12,233ZM273,218.47a6.81,6.81,0,1,0,6.38,6.78A6.66,6.66,0,0,0,273,218.47Z"/><path class="cls-1" d="M322.74,231.78l-.13.13a4.46,4.46,0,0,1-2.85,1.06h-.11a4.6,4.6,0,0,1-2.93-1,3.84,3.84,0,0,1-1.32-2.34l1-.15a2.74,2.74,0,0,0,1,1.75,3.68,3.68,0,0,0,4.65-.07,3.44,3.44,0,0,0,1.05-2.66,3,3,0,0,0-1.26-2.33,6,6,0,0,0-2.36-1,5,5,0,0,1-2.72-1.3,3.84,3.84,0,0,1-1.21-2.83,3.47,3.47,0,0,1,1.14-2.4,4.53,4.53,0,0,1,5.87,0,3.57,3.57,0,0,1,1.07,1.62l-1,.14a2.68,2.68,0,0,0-.72-1,3.57,3.57,0,0,0-4.53-.06,2.43,2.43,0,0,0-.87,1.76,2.8,2.8,0,0,0,.93,2.11,4.16,4.16,0,0,0,2.23,1,6.65,6.65,0,0,1,2.73,1.13,4.12,4.12,0,0,1,1.66,3A4.43,4.43,0,0,1,322.74,231.78Z"/><path class="cls-1" d="M344.16,233a4.82,4.82,0,0,1-4.81-4.83V217.89h1v10.23a3.85,3.85,0,1,0,7.69,0V217.89h1v10.23A4.82,4.82,0,0,1,344.16,233Z"/><path class="cls-1" d="M377.7,229.65a6.43,6.43,0,0,1-.9,1.11,7.31,7.31,0,0,1-5,2.25h-.27a7.35,7.35,0,0,1-5-2.25,7.81,7.81,0,0,1,0-10.85,7.35,7.35,0,0,1,5-2.25h.27a7.31,7.31,0,0,1,5,2.25,6.83,6.83,0,0,1,.9,1.11l-.9.4a6.46,6.46,0,0,0-5.17-2.78,6.72,6.72,0,1,0,5.17,10.61Z"/><path class="cls-1" d="M405.37,229.65a6.43,6.43,0,0,1-.9,1.11,7.31,7.31,0,0,1-5,2.25h-.27a7.35,7.35,0,0,1-5-2.25,7.81,7.81,0,0,1,0-10.85,7.35,7.35,0,0,1,5-2.25h.27a7.31,7.31,0,0,1,5,2.25,6.83,6.83,0,0,1,.9,1.11l-.9.4a6.46,6.46,0,0,0-5.17-2.78,6.72,6.72,0,1,0,5.17,10.61Z"/><path class="cls-1" d="M429.4,231.82v1h-8.72V217.87h8.47v1h-7.49v7.08h5.74v1h-5.74v4.93Z"/><path class="cls-1" d="M451.41,231.78l-.12.13a4.49,4.49,0,0,1-2.85,1.06h-.11a4.56,4.56,0,0,1-2.93-1,3.75,3.75,0,0,1-1.32-2.34l.95-.15a2.83,2.83,0,0,0,1,1.75,3.69,3.69,0,0,0,4.66-.07,3.43,3.43,0,0,0,1-2.66,3,3,0,0,0-1.25-2.33,6,6,0,0,0-2.36-1,5,5,0,0,1-2.72-1.3,3.89,3.89,0,0,1-1.22-2.83,3.52,3.52,0,0,1,1.15-2.4,4.32,4.32,0,0,1,2.94-1.07,4.39,4.39,0,0,1,2.93,1.09,3.74,3.74,0,0,1,1.07,1.62l-1,.14a2.71,2.71,0,0,0-.73-1,3.57,3.57,0,0,0-4.53-.06,2.47,2.47,0,0,0-.87,1.76,2.85,2.85,0,0,0,.94,2.11,4.16,4.16,0,0,0,2.23,1,6.56,6.56,0,0,1,2.72,1.13,4.06,4.06,0,0,1,1.66,3A4.36,4.36,0,0,1,451.41,231.78Z"/><path class="cls-1" d="M474.72,231.78l-.12.13a4.49,4.49,0,0,1-2.85,1.06h-.11a4.58,4.58,0,0,1-2.93-1,3.75,3.75,0,0,1-1.32-2.34l.95-.15a2.83,2.83,0,0,0,1,1.75,3.69,3.69,0,0,0,4.66-.07,3.43,3.43,0,0,0,1-2.66,3,3,0,0,0-1.25-2.33,6,6,0,0,0-2.36-1,5,5,0,0,1-2.72-1.3,3.89,3.89,0,0,1-1.22-2.83,3.52,3.52,0,0,1,1.15-2.4,4.32,4.32,0,0,1,2.94-1.07,4.39,4.39,0,0,1,2.93,1.09,3.74,3.74,0,0,1,1.07,1.62l-1,.14a2.71,2.71,0,0,0-.73-1,3.57,3.57,0,0,0-4.53-.06,2.47,2.47,0,0,0-.87,1.76,2.85,2.85,0,0,0,.94,2.11,4.16,4.16,0,0,0,2.23,1,6.56,6.56,0,0,1,2.72,1.13,4.06,4.06,0,0,1,1.66,3A4.36,4.36,0,0,1,474.72,231.78Z"/><path class="cls-1" d="M242.65,197.2V138a2.84,2.84,0,0,1,2.84-2.84,2.75,2.75,0,0,1,2.73,2.84V197.2a2.67,2.67,0,0,1-2.73,2.74A2.76,2.76,0,0,1,242.65,197.2Zm2.84,11.24a2.84,2.84,0,0,1-2.84-2.84,2.75,2.75,0,0,1,2.84-2.73h37.13a2.82,2.82,0,0,1,2.84,2.73,2.9,2.9,0,0,1-2.84,2.84Z"/><path class="cls-1" d="M299.23,200.13c-5-6-7.42-15.24-7.42-28.34a73.84,73.84,0,0,1,1.66-16.71c1.07-4.79,2.73-8.7,5.18-11.63a21.7,21.7,0,0,1,9.18-6.65,33.44,33.44,0,0,1,12.32-2c4.79,0,9,.68,12.41,2.34a21.74,21.74,0,0,1,9.18,7c4.4,6.06,6.55,15.05,6.55,27.56a70.65,70.65,0,0,1-1.66,16,30.7,30.7,0,0,1-5.57,11.63c-4.69,6.15-11.73,9.28-20.91,9.28C310.67,208.73,303.83,205.9,299.23,200.13ZM303,147c-3.72,4.88-5.57,13-5.57,24.82s2.05,19.74,6,24.82c3.52,4.4,9.09,6.45,16.81,6.45,7.52,0,13-2.34,16.71-7.23,3.81-5.18,5.86-13.29,5.86-24,0-11.14-1.76-19-5.37-24-3.62-4.89-9.19-7.23-17.2-7.23C311.84,140.52,306.37,142.57,303,147Z"/><path class="cls-1" d="M355,208a2.92,2.92,0,0,1-.49-4l23.95-32.15-23.95-32.15a2.91,2.91,0,0,1,.49-4,2.8,2.8,0,0,1,3.91.59l25.21,33.91a2.76,2.76,0,0,1,0,3.42l-25.21,33.72a2.58,2.58,0,0,1-2.15,1.17A4,4,0,0,1,355,208Zm50.14-.68L384.54,179.9a2.73,2.73,0,0,1,.59-3.91,2.81,2.81,0,0,1,3.91.59l20.62,27.36a3,3,0,0,1-.59,4,3.29,3.29,0,0,1-1.66.49A2.59,2.59,0,0,1,405.17,207.27Zm-20-39.58a2.87,2.87,0,0,1-.59-4l20.63-27.46a2.8,2.8,0,0,1,3.9-.59,3,3,0,0,1,.59,4L389,167a2.75,2.75,0,0,1-2.25,1.17A3.34,3.34,0,0,1,385.13,167.69Z"/><path class="cls-1" d="M474.16,208.24a2.8,2.8,0,0,1-3.62-1.46l-25.11-61.47-25.32,61.47a3.18,3.18,0,0,1-2.63,1.66,2.06,2.06,0,0,1-1.08-.2,2.83,2.83,0,0,1-1.56-3.71l28-67.73a2.83,2.83,0,0,1,2.55-1.66A2.71,2.71,0,0,1,448,136.8l27.75,67.73A2.84,2.84,0,0,1,474.16,208.24Zm-16-22.38A2.83,2.83,0,0,0,455.3,183H435.36a2.84,2.84,0,0,0,0,5.67H455.3A2.84,2.84,0,0,0,458.13,185.86Z"/><path class="cls-1" d="M200.9,128.13H145.32a26.08,26.08,0,0,0-26.07,26.08v55.58a26.08,26.08,0,0,0,26.07,26.08H200.9A26.08,26.08,0,0,0,227,209.79V154.21A26.08,26.08,0,0,0,200.9,128.13Zm-52.76,82.35a2.32,2.32,0,1,1-4.64,0V191.76a2.32,2.32,0,0,1,4.64,0Zm36.29,0a2.32,2.32,0,1,1-4.64,0V184.77h-34a2.35,2.35,0,0,1-2.28-2.36V154.17a2.32,2.32,0,1,1,4.64,0v25.88h34a2.35,2.35,0,0,1,2.28,2.36Zm0-37.59a2.32,2.32,0,0,1-4.64,0V154.17a2.32,2.32,0,1,1,4.64,0Zm18.29,20.32a1.24,1.24,0,0,1,0,.33,1.47,1.47,0,0,1,0,.36v16.88a2.3,2.3,0,0,1-2.4,2.06,2.34,2.34,0,0,1-2.5-2.06V193.9a1.49,1.49,0,0,1,.05-.36,1.26,1.26,0,0,1-.05-.33V176.32a2.34,2.34,0,0,1,2.5-2.13,2.3,2.3,0,0,1,2.4,2.13Zm0-23a2.29,2.29,0,0,1-2.4,2,2.33,2.33,0,0,1-2.5-2V153.29a2.34,2.34,0,0,1,2.5-2.13,2.3,2.3,0,0,1,2.4,2.13Z"/></svg>