<svg id="Layer_1" data-name="Layer 1" xmlns="http://www.w3.org/2000/svg" xmlns:xlink="http://www.w3.org/1999/xlink" viewBox="0 0 595.28 364"><defs><style>.cls-1{fill:#262f45;}.cls-2{fill:url(#linear-gradient);}.cls-3{fill:url(#linear-gradient-2);}</style><linearGradient id="linear-gradient" x1="290.94" y1="275.27" x2="336.51" y2="275.27" gradientUnits="userSpaceOnUse"><stop offset="0" stop-color="#83d0f5"/><stop offset="1" stop-color="#1d71b8"/></linearGradient><linearGradient id="linear-gradient-2" x1="199.6" y1="137.21" x2="389.2" y2="137.21" gradientUnits="userSpaceOnUse"><stop offset="0" stop-color="#009fe3"/><stop offset="1" stop-color="#2d2e83"/></linearGradient></defs><path class="cls-1" d="M206.72,311.67h-3.48v11.44h-.78V311.67H199v-.78h7.74Z"/><path class="cls-1" d="M224,323.3h-.22a5.86,5.86,0,0,1-4.1-1.86,6.49,6.49,0,0,1,0-8.95,5.86,5.86,0,0,1,4.1-1.86H224a6,6,0,0,1,4.11,1.86,6.54,6.54,0,0,1,0,8.95A6,6,0,0,1,224,323.3Zm-.12-11.89a5.57,5.57,0,1,0,5.22,5.55A5.45,5.45,0,0,0,223.84,311.41Z"/><path class="cls-1" d="M264.52,322.29l-.1.11a3.67,3.67,0,0,1-2.33.87H262a3.77,3.77,0,0,1-2.4-.84,3.06,3.06,0,0,1-1.07-1.91l.78-.12a2.25,2.25,0,0,0,.81,1.42,3,3,0,0,0,3.81-.05,2.78,2.78,0,0,0,.85-2.17,2.44,2.44,0,0,0-1-1.91,5,5,0,0,0-1.93-.79,4,4,0,0,1-2.23-1.06,3.18,3.18,0,0,1-1-2.31,2.85,2.85,0,0,1,.94-2,3.51,3.51,0,0,1,2.4-.87,3.6,3.6,0,0,1,2.4.88,3.05,3.05,0,0,1,.87,1.32l-.8.13a2.14,2.14,0,0,0-.59-.86,2.92,2.92,0,0,0-3.71-.05,2.06,2.06,0,0,0-.71,1.45,2.35,2.35,0,0,0,.77,1.72,3.53,3.53,0,0,0,1.82.85,5.35,5.35,0,0,1,2.23.92,3.32,3.32,0,0,1,1.35,2.49A3.58,3.58,0,0,1,264.52,322.29Z"/><path class="cls-1" d="M282,323.25a4,4,0,0,1-3.93-3.95v-8.36h.78v8.36a3.15,3.15,0,1,0,6.3,0v-8.36H286v8.36A4,4,0,0,1,282,323.25Z"/><path class="cls-1" d="M309.45,320.55a5.36,5.36,0,0,1-.74.91,6,6,0,0,1-4.1,1.84h-.22a6,6,0,0,1-4.12-1.84,6.39,6.39,0,0,1,0-8.87,6,6,0,0,1,4.12-1.84h.22a6,6,0,0,1,4.1,1.84,5.36,5.36,0,0,1,.74.91l-.74.33a5.25,5.25,0,0,0-4.22-2.28,5.49,5.49,0,0,0,0,11,5.32,5.32,0,0,0,4.22-2.3Z"/><path class="cls-1" d="M332.06,320.55a5.3,5.3,0,0,1-.73.91,6,6,0,0,1-4.1,1.84H327a6,6,0,0,1-4.12-1.84,6.39,6.39,0,0,1,0-8.87,6,6,0,0,1,4.12-1.84h.23a6,6,0,0,1,4.1,1.84,5.3,5.3,0,0,1,.73.91l-.73.33a5.27,5.27,0,0,0-4.22-2.28,5.49,5.49,0,0,0,0,11,5.34,5.34,0,0,0,4.22-2.3Z"/><path class="cls-1" d="M351.71,322.33v.78h-7.13V310.92h6.92v.79h-6.12v5.78h4.69v.8h-4.69v4Z"/><path class="cls-1" d="M369.7,322.29l-.1.11a3.7,3.7,0,0,1-2.33.87h-.09a3.77,3.77,0,0,1-2.4-.84,3.12,3.12,0,0,1-1.08-1.91l.79-.12a2.21,2.21,0,0,0,.81,1.42,3,3,0,0,0,3.81-.05,2.82,2.82,0,0,0,.85-2.17,2.44,2.44,0,0,0-1-1.91,5.1,5.1,0,0,0-1.93-.79,4,4,0,0,1-2.23-1.06,3.18,3.18,0,0,1-1-2.31,2.81,2.81,0,0,1,.94-2,3.51,3.51,0,0,1,2.4-.87,3.62,3.62,0,0,1,2.4.88,3.14,3.14,0,0,1,.87,1.32l-.8.13a2.28,2.28,0,0,0-.6-.86,2.91,2.91,0,0,0-3.7-.05,2.06,2.06,0,0,0-.71,1.45,2.28,2.28,0,0,0,.77,1.72,3.49,3.49,0,0,0,1.82.85,5.26,5.26,0,0,1,2.22.92,3.33,3.33,0,0,1,1.36,2.49A3.61,3.61,0,0,1,369.7,322.29Z"/><path class="cls-1" d="M388.75,322.29l-.1.11a3.67,3.67,0,0,1-2.33.87h-.09a3.77,3.77,0,0,1-2.4-.84,3.06,3.06,0,0,1-1.07-1.91l.78-.12a2.22,2.22,0,0,0,.82,1.42,3,3,0,0,0,3.8-.05,2.78,2.78,0,0,0,.85-2.17,2.44,2.44,0,0,0-1-1.91,5,5,0,0,0-1.93-.79,4,4,0,0,1-2.23-1.06,3.18,3.18,0,0,1-1-2.31,2.85,2.85,0,0,1,.94-2,3.51,3.51,0,0,1,2.4-.87,3.6,3.6,0,0,1,2.4.88,3.05,3.05,0,0,1,.87,1.32l-.8.13a2.14,2.14,0,0,0-.59-.86,2.91,2.91,0,0,0-3.7-.05,2,2,0,0,0-.72,1.45,2.35,2.35,0,0,0,.77,1.72,3.53,3.53,0,0,0,1.82.85,5.3,5.3,0,0,1,2.23.92,3.32,3.32,0,0,1,1.35,2.49A3.58,3.58,0,0,1,388.75,322.29Z"/><path class="cls-1" d="M200.71,295.89v-48a2.3,2.3,0,0,1,2.3-2.3,2.24,2.24,0,0,1,2.22,2.3v48a2.17,2.17,0,0,1-2.22,2.22A2.23,2.23,0,0,1,200.71,295.89ZM203,305a2.3,2.3,0,0,1-2.3-2.3,2.23,2.23,0,0,1,2.3-2.21h30.1a2.28,2.28,0,0,1,2.3,2.21,2.35,2.35,0,0,1-2.3,2.3Z"/><path class="cls-1" d="M246.58,298.27c-4-4.84-6-12.36-6-23a60.14,60.14,0,0,1,1.34-13.54,22,22,0,0,1,4.2-9.43,17.57,17.57,0,0,1,7.45-5.39,26.91,26.91,0,0,1,10-1.58,23,23,0,0,1,10.06,1.9A17.67,17.67,0,0,1,281,253c3.56,4.91,5.31,12.2,5.31,22.34a57.64,57.64,0,0,1-1.35,13,24.8,24.8,0,0,1-4.51,9.42c-3.81,5-9.51,7.53-17,7.53C255.85,305.24,250.3,302.94,246.58,298.27Zm3-43.1c-3,4-4.52,10.54-4.52,20.12s1.67,16,4.83,20.13c2.86,3.56,7.37,5.22,13.63,5.22,6.1,0,10.54-1.9,13.55-5.86,3.09-4.2,4.75-10.77,4.75-19.49,0-9-1.42-15.37-4.36-19.49-2.93-4-7.44-5.86-13.94-5.86C256.8,249.94,252.36,251.6,249.59,255.17Z"/><path class="cls-2" d="M291.81,304.61a2.37,2.37,0,0,1-.4-3.25l19.41-26.07-19.41-26.06a2.35,2.35,0,0,1,.4-3.25,2.28,2.28,0,0,1,3.17.47L315.42,274a2.27,2.27,0,0,1,0,2.77L295,304.05a2.1,2.1,0,0,1-1.74.95A3.34,3.34,0,0,1,291.81,304.61Zm40.64-.56-16.71-22.18a2.2,2.2,0,0,1,.47-3.17,2.28,2.28,0,0,1,3.17.47l16.72,22.19a2.47,2.47,0,0,1-.48,3.25,2.72,2.72,0,0,1-1.35.39A2.13,2.13,0,0,1,332.45,304.05ZM316.21,272a2.3,2.3,0,0,1-.47-3.24l16.71-22.27a2.29,2.29,0,0,1,3.17-.47,2.46,2.46,0,0,1,.48,3.25l-16.72,22.18a2.22,2.22,0,0,1-1.82.95A2.66,2.66,0,0,1,316.21,272Z"/><path class="cls-1" d="M388.38,304.84a2.27,2.27,0,0,1-2.93-1.19l-20.36-49.83-20.52,49.83a2.56,2.56,0,0,1-2.14,1.35,1.7,1.7,0,0,1-.87-.16,2.31,2.31,0,0,1-1.27-3L363,246.93a2.28,2.28,0,0,1,2.06-1.35,2.2,2.2,0,0,1,2.06,1.35l22.5,54.9A2.31,2.31,0,0,1,388.38,304.84Zm-13-18.14a2.3,2.3,0,0,0-2.3-2.3H356.93a2.3,2.3,0,0,0,0,4.6h16.16A2.3,2.3,0,0,0,375.39,286.7Z"/><path class="cls-3" d="M343.31,42.41H245.49A45.88,45.88,0,0,0,199.6,88.3v97.82A45.88,45.88,0,0,0,245.49,232h97.82a45.88,45.88,0,0,0,45.89-45.89V88.3A45.88,45.88,0,0,0,343.31,42.41Zm-93.83,110.7H230.72a2.67,2.67,0,1,1,0-5.33h18.76a2.67,2.67,0,0,1,0,5.33Zm17.74,18.38a2.63,2.63,0,0,1-3.4-1.37l-23.63-57.83-23.81,57.83a3,3,0,0,1-2.48,1.56,2,2,0,0,1-1-.19,2.68,2.68,0,0,1-1.47-3.49l26.39-63.71a2.64,2.64,0,0,1,2.39-1.57,2.55,2.55,0,0,1,2.39,1.57L268.69,168A2.67,2.67,0,0,1,267.22,171.49Zm44.41-24.08a25.65,25.65,0,0,1-11.31,3h-2.75a2.63,2.63,0,0,1-2.58-2.57,2.67,2.67,0,0,1,2.58-2.76h2.75a20.79,20.79,0,0,0,9-2.39c5.61-3,8.37-8.55,8.37-16.27,0-5.7-1.56-10.21-4.69-13.43a18.63,18.63,0,0,0-8.09-4.41,23.66,23.66,0,0,0-4.6-.55h-21v37.05h9a2.69,2.69,0,0,1,2.67,2.76,2.65,2.65,0,0,1-2.67,2.57h-9V169.1a2.65,2.65,0,0,1-2.67,2.58,2.57,2.57,0,0,1-2.57-2.58V105.3a2.57,2.57,0,0,1,2.57-2.58h23.63c.55,0,9.75.1,16.37,6.62,4.23,4.14,6.34,9.93,6.34,17.11C323,138.77,316.78,144.74,311.63,147.41Zm55.9,0a25.65,25.65,0,0,1-11.31,3h-2.75a2.63,2.63,0,0,1-2.58-2.57,2.67,2.67,0,0,1,2.58-2.76h2.75a20.84,20.84,0,0,0,9-2.39c5.6-3,8.36-8.55,8.36-16.27,0-5.7-1.56-10.21-4.69-13.43a18.63,18.63,0,0,0-8.09-4.41,23.66,23.66,0,0,0-4.6-.55h-21v37.05h9a2.69,2.69,0,0,1,2.67,2.76,2.65,2.65,0,0,1-2.67,2.57h-9V169.1a2.65,2.65,0,0,1-2.66,2.58A2.58,2.58,0,0,1,330,169.1V105.3a2.58,2.58,0,0,1,2.58-2.58h23.62c.56,0,9.75.1,16.37,6.62,4.23,4.14,6.34,9.93,6.34,17.11C378.93,138.77,372.68,144.74,367.53,147.41Z"/></svg>