<svg id="Layer_1" data-name="Layer 1" xmlns="http://www.w3.org/2000/svg" viewBox="0 0 595.28 364"><defs><style>.cls-1{fill:#fff;}</style></defs><path class="cls-1" d="M205.32,311.67h-3.48v11.44h-.78V311.67h-3.48v-.78h7.74Z"/><path class="cls-1" d="M222.56,323.3h-.22a5.9,5.9,0,0,1-4.11-1.86,6.49,6.49,0,0,1,0-8.95,5.9,5.9,0,0,1,4.11-1.86h.22a5.93,5.93,0,0,1,4.1,1.86,6.52,6.52,0,0,1,0,8.95A5.93,5.93,0,0,1,222.56,323.3Zm-.12-11.89a5.57,5.57,0,1,0,5.22,5.55A5.46,5.46,0,0,0,222.44,311.41Z"/><path class="cls-1" d="M263.12,322.29l-.1.11a3.7,3.7,0,0,1-2.33.87h-.09a3.77,3.77,0,0,1-2.4-.84,3.12,3.12,0,0,1-1.08-1.91l.79-.12a2.21,2.21,0,0,0,.81,1.42,3,3,0,0,0,3.81-.05,2.82,2.82,0,0,0,.85-2.17,2.44,2.44,0,0,0-1-1.91,5,5,0,0,0-1.93-.79,4,4,0,0,1-2.23-1.06,3.18,3.18,0,0,1-1-2.31,2.85,2.85,0,0,1,.94-2,3.51,3.51,0,0,1,2.4-.87,3.62,3.62,0,0,1,2.4.88,3.14,3.14,0,0,1,.87,1.32l-.8.13a2.28,2.28,0,0,0-.6-.86,2.91,2.91,0,0,0-3.7-.05,2.06,2.06,0,0,0-.71,1.45,2.28,2.28,0,0,0,.77,1.72,3.49,3.49,0,0,0,1.82.85,5.35,5.35,0,0,1,2.23.92,3.32,3.32,0,0,1,1.35,2.49A3.61,3.61,0,0,1,263.12,322.29Z"/><path class="cls-1" d="M280.63,323.25a3.94,3.94,0,0,1-3.93-3.95v-8.36h.78v8.36a3.15,3.15,0,1,0,6.29,0v-8.36h.79v8.36A4,4,0,0,1,280.63,323.25Z"/><path class="cls-1" d="M308,320.55a5.3,5.3,0,0,1-.73.91,6,6,0,0,1-4.1,1.84H303a6,6,0,0,1-4.12-1.84,6.39,6.39,0,0,1,0-8.87,6,6,0,0,1,4.12-1.84h.23a6,6,0,0,1,4.1,1.84,5.3,5.3,0,0,1,.73.91l-.73.33a5.25,5.25,0,0,0-4.22-2.28,5.49,5.49,0,0,0,0,11,5.32,5.32,0,0,0,4.22-2.3Z"/><path class="cls-1" d="M330.66,320.55a5.3,5.3,0,0,1-.73.91,6,6,0,0,1-4.1,1.84h-.23a6,6,0,0,1-4.12-1.84,6.39,6.39,0,0,1,0-8.87,6,6,0,0,1,4.12-1.84h.23a6,6,0,0,1,4.1,1.84,5.3,5.3,0,0,1,.73.91l-.73.33a5.28,5.28,0,0,0-4.23-2.28,5.49,5.49,0,1,0,4.23,8.67Z"/><path class="cls-1" d="M350.3,322.33v.78h-7.12V310.92h6.92v.79H344v5.78h4.69v.8H344v4Z"/><path class="cls-1" d="M368.3,322.29l-.11.11a3.65,3.65,0,0,1-2.33.87h-.08a3.75,3.75,0,0,1-2.4-.84,3.07,3.07,0,0,1-1.08-1.91l.78-.12a2.27,2.27,0,0,0,.82,1.42,3,3,0,0,0,3.81-.05,2.82,2.82,0,0,0,.85-2.17,2.45,2.45,0,0,0-1-1.91,5,5,0,0,0-1.93-.79,4,4,0,0,1-2.22-1.06,3.14,3.14,0,0,1-1-2.31,2.81,2.81,0,0,1,.94-2,3.51,3.51,0,0,1,2.4-.87,3.58,3.58,0,0,1,2.39.88,3,3,0,0,1,.87,1.32l-.8.13a2.14,2.14,0,0,0-.59-.86,2.91,2.91,0,0,0-3.7-.05,2.06,2.06,0,0,0-.71,1.45,2.3,2.3,0,0,0,.76,1.72,3.52,3.52,0,0,0,1.83.85,5.26,5.26,0,0,1,2.22.92,3.33,3.33,0,0,1,1.36,2.49A3.61,3.61,0,0,1,368.3,322.29Z"/><path class="cls-1" d="M387.35,322.29l-.1.11a3.7,3.7,0,0,1-2.33.87h-.09a3.77,3.77,0,0,1-2.4-.84,3.12,3.12,0,0,1-1.08-1.91l.79-.12a2.25,2.25,0,0,0,.81,1.42,3,3,0,0,0,3.81-.05,2.82,2.82,0,0,0,.85-2.17,2.44,2.44,0,0,0-1-1.91,5,5,0,0,0-1.93-.79,4,4,0,0,1-2.23-1.06,3.18,3.18,0,0,1-1-2.31,2.85,2.85,0,0,1,.94-2,3.51,3.51,0,0,1,2.4-.87,3.62,3.62,0,0,1,2.4.88,3.14,3.14,0,0,1,.87,1.32l-.8.13a2.25,2.25,0,0,0-.59-.86,2.92,2.92,0,0,0-3.71-.05,2.06,2.06,0,0,0-.71,1.45,2.32,2.32,0,0,0,.77,1.72,3.53,3.53,0,0,0,1.82.85,5.35,5.35,0,0,1,2.23.92,3.32,3.32,0,0,1,1.35,2.49A3.61,3.61,0,0,1,387.35,322.29Z"/><path class="cls-1" d="M199.31,295.89v-48a2.3,2.3,0,0,1,2.29-2.3,2.23,2.23,0,0,1,2.22,2.3v48a2.17,2.17,0,0,1-2.22,2.22A2.23,2.23,0,0,1,199.31,295.89ZM201.6,305a2.3,2.3,0,0,1-2.29-2.3,2.23,2.23,0,0,1,2.29-2.21h30.11a2.28,2.28,0,0,1,2.3,2.21,2.35,2.35,0,0,1-2.3,2.3Z"/><path class="cls-1" d="M245.18,298.27c-4.05-4.84-6-12.36-6-23a60.09,60.09,0,0,1,1.35-13.54,22,22,0,0,1,4.2-9.43,17.57,17.57,0,0,1,7.45-5.39,26.91,26.91,0,0,1,10-1.58,23,23,0,0,1,10.06,1.9,17.67,17.67,0,0,1,7.45,5.7c3.56,4.91,5.31,12.2,5.31,22.34a57.64,57.64,0,0,1-1.35,13,24.82,24.82,0,0,1-4.52,9.42c-3.8,5-9.5,7.53-16.95,7.53C254.44,305.24,248.9,302.94,245.18,298.27Zm3-43.1c-3,4-4.52,10.54-4.52,20.12s1.66,16,4.83,20.13c2.85,3.56,7.37,5.22,13.63,5.22,6.1,0,10.54-1.9,13.55-5.86,3.09-4.2,4.75-10.77,4.75-19.49,0-9-1.43-15.37-4.36-19.49-2.93-4-7.44-5.86-13.94-5.86C255.4,249.94,251,251.6,248.19,255.17Z"/><path class="cls-1" d="M290.41,304.61a2.37,2.37,0,0,1-.4-3.25l19.41-26.07L290,249.23a2.35,2.35,0,0,1,.4-3.25,2.28,2.28,0,0,1,3.17.47L314,274a2.27,2.27,0,0,1,0,2.77l-20.44,27.33a2.1,2.1,0,0,1-1.75.95A3.3,3.3,0,0,1,290.41,304.61Zm40.64-.56-16.72-22.18a2.21,2.21,0,0,1,.48-3.17,2.28,2.28,0,0,1,3.17.47l16.71,22.19a2.46,2.46,0,0,1-.47,3.25,2.75,2.75,0,0,1-1.35.39A2.13,2.13,0,0,1,331.05,304.05ZM314.81,272a2.31,2.31,0,0,1-.48-3.24l16.72-22.27a2.29,2.29,0,0,1,3.17-.47,2.45,2.45,0,0,1,.47,3.25L318,271.41a2.24,2.24,0,0,1-1.82.95A2.66,2.66,0,0,1,314.81,272Z"/><path class="cls-1" d="M387,304.84a2.27,2.27,0,0,1-2.93-1.19l-20.36-49.83-20.52,49.83A2.58,2.58,0,0,1,341,305a1.67,1.67,0,0,1-.87-.16,2.31,2.31,0,0,1-1.27-3l22.74-54.9a2.27,2.27,0,0,1,2.06-1.35,2.2,2.2,0,0,1,2.06,1.35l22.5,54.9A2.31,2.31,0,0,1,387,304.84ZM374,286.7a2.3,2.3,0,0,0-2.3-2.3H355.53a2.3,2.3,0,1,0,0,4.6h16.16A2.3,2.3,0,0,0,374,286.7Z"/><path class="cls-1" d="M341.91,42.41H244.09A45.88,45.88,0,0,0,198.2,88.3v97.82A45.88,45.88,0,0,0,244.09,232h97.82a45.88,45.88,0,0,0,45.89-45.89V88.3A45.88,45.88,0,0,0,341.91,42.41Zm-93.84,110.7H229.32a2.67,2.67,0,1,1,0-5.33h18.75a2.67,2.67,0,1,1,0,5.33Zm17.75,18.38a2.63,2.63,0,0,1-3.4-1.37l-23.63-57.83L215,170.12a3,3,0,0,1-2.49,1.56,1.94,1.94,0,0,1-1-.19A2.67,2.67,0,0,1,210,168l26.39-63.71a2.64,2.64,0,0,1,2.39-1.57,2.55,2.55,0,0,1,2.39,1.57L267.29,168A2.67,2.67,0,0,1,265.82,171.49Zm44.41-24.08a25.65,25.65,0,0,1-11.31,3h-2.76a2.62,2.62,0,0,1-2.57-2.57,2.67,2.67,0,0,1,2.57-2.76h2.76a20.81,20.81,0,0,0,9-2.39c5.61-3,8.37-8.55,8.37-16.27,0-5.7-1.57-10.21-4.69-13.43a18.69,18.69,0,0,0-8.09-4.41,23.81,23.81,0,0,0-4.6-.55H278v37.05h9a2.69,2.69,0,0,1,2.67,2.76,2.65,2.65,0,0,1-2.67,2.57h-9V169.1a2.66,2.66,0,0,1-2.67,2.58,2.57,2.57,0,0,1-2.57-2.58V105.3a2.57,2.57,0,0,1,2.57-2.58h23.63c.55,0,9.75.1,16.37,6.62,4.23,4.14,6.34,9.93,6.34,17.11C321.63,138.77,315.38,144.74,310.23,147.41Zm55.9,0a25.65,25.65,0,0,1-11.31,3h-2.76a2.63,2.63,0,0,1-2.57-2.57,2.67,2.67,0,0,1,2.57-2.76h2.76a20.81,20.81,0,0,0,9-2.39c5.61-3,8.37-8.55,8.37-16.27,0-5.7-1.56-10.21-4.69-13.43a18.63,18.63,0,0,0-8.09-4.41,23.73,23.73,0,0,0-4.6-.55h-21v37.05h9a2.69,2.69,0,0,1,2.67,2.76,2.65,2.65,0,0,1-2.67,2.57h-9V169.1a2.65,2.65,0,0,1-2.67,2.58,2.57,2.57,0,0,1-2.57-2.58V105.3a2.57,2.57,0,0,1,2.57-2.58h23.63c.55,0,9.75.1,16.37,6.62,4.23,4.14,6.34,9.93,6.34,17.11C377.53,138.77,371.28,144.74,366.13,147.41Z"/></svg>