<svg id="Layer_1" data-name="Layer 1" xmlns="http://www.w3.org/2000/svg" viewBox="0 0 595.28 364"><defs><style>.cls-1{fill:#fff;}.cls-2{fill:#262f45;}</style></defs><path class="cls-1" d="M221.59,252.2h-3.35v11h-.76v-11h-3.36v-.75h7.47Z"/><path class="cls-1" d="M238.24,263.43H238a5.69,5.69,0,0,1-4-1.8,6.26,6.26,0,0,1,0-8.64,5.68,5.68,0,0,1,4-1.79h.22a5.74,5.74,0,0,1,4,1.79,6.31,6.31,0,0,1,0,8.64A5.75,5.75,0,0,1,238.24,263.43ZM238.12,252a5.37,5.37,0,1,0,5,5.35A5.27,5.27,0,0,0,238.12,252Z"/><path class="cls-1" d="M277.39,262.46l-.1.1a3.54,3.54,0,0,1-2.25.84H275a3.66,3.66,0,0,1-2.32-.81,3,3,0,0,1-1-1.85l.76-.11a2.17,2.17,0,0,0,.78,1.37,2.91,2.91,0,0,0,3.68-.05,2.71,2.71,0,0,0,.82-2.1,2.34,2.34,0,0,0-1-1.84,4.92,4.92,0,0,0-1.86-.76,3.86,3.86,0,0,1-2.15-1,3.05,3.05,0,0,1-1-2.23,2.78,2.78,0,0,1,.91-1.9,3.58,3.58,0,0,1,4.63,0,2.78,2.78,0,0,1,.84,1.27l-.77.12a2.07,2.07,0,0,0-.57-.82,2.82,2.82,0,0,0-3.58-.05,1.93,1.93,0,0,0-.68,1.39,2.19,2.19,0,0,0,.74,1.66,3.32,3.32,0,0,0,1.76.83,5.11,5.11,0,0,1,2.15.89,3.18,3.18,0,0,1,1.3,2.39A3.49,3.49,0,0,1,277.39,262.46Z"/><path class="cls-1" d="M294.29,263.38a3.8,3.8,0,0,1-3.79-3.81V251.5h.75v8.07a3,3,0,1,0,6.08,0V251.5h.75v8.07A3.8,3.8,0,0,1,294.29,263.38Z"/><path class="cls-1" d="M320.75,260.78a4.86,4.86,0,0,1-.7.87,5.8,5.8,0,0,1-4,1.78h-.22a5.84,5.84,0,0,1-4-1.78,6.19,6.19,0,0,1,0-8.56,5.84,5.84,0,0,1,4-1.78h.22a5.8,5.8,0,0,1,4,1.78,5.24,5.24,0,0,1,.7.87l-.7.32a5.08,5.08,0,0,0-4.08-2.19,5.3,5.3,0,0,0,0,10.58,5.16,5.16,0,0,0,4.08-2.21Z"/><path class="cls-1" d="M342.59,260.78a5.4,5.4,0,0,1-.71.87,5.8,5.8,0,0,1-4,1.78h-.22a5.84,5.84,0,0,1-4-1.78,6.19,6.19,0,0,1,0-8.56,5.84,5.84,0,0,1,4-1.78h.22a5.8,5.8,0,0,1,4,1.78,5.87,5.87,0,0,1,.71.87l-.71.32a5.08,5.08,0,0,0-4.08-2.19,5.3,5.3,0,0,0,0,10.58,5.16,5.16,0,0,0,4.08-2.21Z"/><path class="cls-1" d="M361.55,262.49v.75h-6.88V251.48h6.68v.76h-5.91v5.58H360v.78h-4.53v3.89Z"/><path class="cls-1" d="M378.92,262.46l-.1.1a3.56,3.56,0,0,1-2.25.84h-.09a3.63,3.63,0,0,1-2.31-.81,3,3,0,0,1-1-1.85l.75-.11a2.23,2.23,0,0,0,.79,1.37,2.91,2.91,0,0,0,3.68-.05,2.71,2.71,0,0,0,.82-2.1,2.36,2.36,0,0,0-1-1.84,5,5,0,0,0-1.86-.76,3.86,3.86,0,0,1-2.15-1,3.05,3.05,0,0,1-1-2.23,2.78,2.78,0,0,1,.91-1.9,3.42,3.42,0,0,1,2.31-.84,3.48,3.48,0,0,1,2.32.86,2.86,2.86,0,0,1,.84,1.27l-.77.12a2.07,2.07,0,0,0-.57-.82,2.82,2.82,0,0,0-3.58-.05A2,2,0,0,0,374,254a2.27,2.27,0,0,0,.74,1.66,3.35,3.35,0,0,0,1.76.83,5,5,0,0,1,2.15.89,3.19,3.19,0,0,1,1.31,2.39A3.53,3.53,0,0,1,378.92,262.46Z"/><path class="cls-1" d="M397.31,262.46l-.1.1a3.54,3.54,0,0,1-2.25.84h-.08a3.64,3.64,0,0,1-2.32-.81,3,3,0,0,1-1-1.85l.76-.11a2.17,2.17,0,0,0,.78,1.37,2.91,2.91,0,0,0,3.68-.05,2.71,2.71,0,0,0,.82-2.1,2.34,2.34,0,0,0-1-1.84,5,5,0,0,0-1.86-.76,3.86,3.86,0,0,1-2.15-1,3.05,3.05,0,0,1-1-2.23,2.78,2.78,0,0,1,.91-1.9,3.58,3.58,0,0,1,4.63,0,2.86,2.86,0,0,1,.84,1.27l-.77.12a2.07,2.07,0,0,0-.57-.82,2.82,2.82,0,0,0-3.58-.05,1.93,1.93,0,0,0-.68,1.39,2.19,2.19,0,0,0,.74,1.66,3.32,3.32,0,0,0,1.76.83,5,5,0,0,1,2.14.89,3.16,3.16,0,0,1,1.31,2.39A3.49,3.49,0,0,1,397.31,262.46Z"/><path class="cls-2" d="M135.17,219.72V135.25a4,4,0,0,1,4-4,3.93,3.93,0,0,1,3.91,4v84.47a3.81,3.81,0,0,1-3.91,3.9A3.92,3.92,0,0,1,135.17,219.72Zm4,16a4,4,0,0,1-4-4,3.92,3.92,0,0,1,4-3.9h53a4,4,0,0,1,4,3.9,4.13,4.13,0,0,1-4,4Z"/><path class="cls-2" d="M215.87,223.9c-7.11-8.51-10.6-21.75-10.6-40.42a106,106,0,0,1,2.37-23.84c1.54-6.83,3.91-12.4,7.39-16.58a30.87,30.87,0,0,1,13.1-9.48c4.88-2,10.73-2.79,17.56-2.79s12.83,1,17.7,3.35a31,31,0,0,1,13.11,10c6.27,8.64,9.33,21.47,9.33,39.31a100.76,100.76,0,0,1-2.37,22.86,43.74,43.74,0,0,1-7.94,16.58c-6.69,8.78-16.73,13.24-29.83,13.24C232.17,236.16,222.42,232.12,215.87,223.9Zm5.29-75.82c-5.29,7-7.94,18.53-7.94,35.4s2.93,28.15,8.5,35.4c5,6.27,13,9.2,24,9.2,10.73,0,18.54-3.35,23.84-10.32,5.43-7.38,8.36-18.95,8.36-34.28,0-15.89-2.51-27-7.67-34.29-5.15-7-13.1-10.31-24.53-10.31C233.85,138.88,226,141.8,221.16,148.08Z"/><path class="cls-1" d="M295.44,235.05a4.15,4.15,0,0,1-.69-5.72l34.14-45.85-34.14-45.86a4.12,4.12,0,0,1,.69-5.71,4,4,0,0,1,5.58.83l36,48.37a4,4,0,0,1,0,4.88l-36,48.08a3.66,3.66,0,0,1-3.07,1.67A5.68,5.68,0,0,1,295.44,235.05Zm71.5-1-29.4-39a3.88,3.88,0,0,1,.83-5.58,4,4,0,0,1,5.58.84l29.41,39a4.35,4.35,0,0,1-.84,5.72,4.67,4.67,0,0,1-2.37.69A3.73,3.73,0,0,1,366.94,234.07Zm-28.57-56.45c-1.81-1.39-2.23-4.18-.83-5.71l29.4-39.17a4,4,0,0,1,5.58-.83,4.32,4.32,0,0,1,.84,5.71l-29.41,39a3.92,3.92,0,0,1-3.21,1.67A4.68,4.68,0,0,1,338.37,177.62Z"/><path class="cls-2" d="M465.34,235.47a4,4,0,0,1-5.16-2.1l-35.82-87.66-36.1,87.66a4.52,4.52,0,0,1-3.76,2.37,3.06,3.06,0,0,1-1.53-.27,4.06,4.06,0,0,1-2.23-5.3l40-96.59a4,4,0,0,1,3.62-2.37,3.84,3.84,0,0,1,3.62,2.37l39.59,96.59A4.07,4.07,0,0,1,465.34,235.47Zm-22.86-31.92a4,4,0,0,0-4-4H410a4,4,0,1,0,0,8.08h28.43A4,4,0,0,0,442.48,203.55Z"/></svg>