<svg id="Layer_1" data-name="Layer 1" xmlns="http://www.w3.org/2000/svg" viewBox="0 0 595.28 364"><defs><style>.cls-1{fill:#fff;}</style></defs><path class="cls-1" d="M239.37,220.45h-4.79v15.77H233.5V220.45h-4.79v-1.08h10.66Z"/><path class="cls-1" d="M263.15,236.48h-.31a8.13,8.13,0,0,1-5.66-2.56,9,9,0,0,1,0-12.35,8.13,8.13,0,0,1,5.66-2.56h.31a8.21,8.21,0,0,1,5.65,2.56,9,9,0,0,1,0,12.35A8.21,8.21,0,0,1,263.15,236.48ZM263,220.09a7.67,7.67,0,1,0,7.19,7.64A7.5,7.5,0,0,0,263,220.09Z"/><path class="cls-1" d="M319.07,235.09l-.15.14a5,5,0,0,1-3.21,1.2h-.12a5.22,5.22,0,0,1-3.31-1.15,4.26,4.26,0,0,1-1.48-2.63l1.08-.17a3.09,3.09,0,0,0,1.12,2,4.14,4.14,0,0,0,5.25-.07,3.86,3.86,0,0,0,1.18-3,3.39,3.39,0,0,0-1.42-2.64,7,7,0,0,0-2.66-1.08,5.63,5.63,0,0,1-3.07-1.46,4.36,4.36,0,0,1-1.36-3.19,4,4,0,0,1,1.29-2.71,4.89,4.89,0,0,1,3.31-1.2,5,5,0,0,1,3.31,1.23,4.18,4.18,0,0,1,1.2,1.82l-1.11.17a2.91,2.91,0,0,0-.81-1.18,4,4,0,0,0-5.11-.07,2.79,2.79,0,0,0-1,2,3.19,3.19,0,0,0,1.06,2.37,4.69,4.69,0,0,0,2.51,1.18,7.26,7.26,0,0,1,3.07,1.27,4.62,4.62,0,0,1,1.87,3.42A5,5,0,0,1,319.07,235.09Z"/><path class="cls-1" d="M343.2,236.41a5.43,5.43,0,0,1-5.41-5.44V219.44h1.07V231a4.34,4.34,0,1,0,8.68,0V219.44h1.08V231A5.44,5.44,0,0,1,343.2,236.41Z"/><path class="cls-1" d="M381,232.69a6.75,6.75,0,0,1-1,1.25,8.23,8.23,0,0,1-5.65,2.54H374a8.28,8.28,0,0,1-5.67-2.54,8.79,8.79,0,0,1,0-12.22,8.28,8.28,0,0,1,5.67-2.54h.32a8.23,8.23,0,0,1,5.65,2.54,7,7,0,0,1,1,1.24l-1,.46a7.28,7.28,0,0,0-5.82-3.14,7.57,7.57,0,0,0,0,15.12,7.35,7.35,0,0,0,5.82-3.16Z"/><path class="cls-1" d="M412.18,232.69a7.13,7.13,0,0,1-1,1.25,8.25,8.25,0,0,1-5.66,2.54h-.31a8.28,8.28,0,0,1-5.68-2.54,8.79,8.79,0,0,1,0-12.22,8.28,8.28,0,0,1,5.68-2.54h.31a8.25,8.25,0,0,1,5.66,2.54,7.44,7.44,0,0,1,1,1.24l-1,.46a7.31,7.31,0,0,0-5.83-3.14,7.57,7.57,0,1,0,5.83,12Z"/><path class="cls-1" d="M439.27,235.14v1.08h-9.83v-16.8H439v1.07h-8.44v8H437v1.1h-6.47v5.56Z"/><path class="cls-1" d="M464.07,235.09l-.14.14a5,5,0,0,1-3.21,1.2h-.12a5.2,5.2,0,0,1-3.31-1.15,4.26,4.26,0,0,1-1.48-2.63l1.07-.17a3.15,3.15,0,0,0,1.13,2,4.14,4.14,0,0,0,5.25-.07,3.85,3.85,0,0,0,1.17-3,3.35,3.35,0,0,0-1.41-2.64,7,7,0,0,0-2.66-1.08,5.63,5.63,0,0,1-3.07-1.46,4.36,4.36,0,0,1-1.36-3.19,3.87,3.87,0,0,1,1.29-2.71,5.1,5.1,0,0,1,6.61,0,4,4,0,0,1,1.2,1.82l-1.1.17a3,3,0,0,0-.81-1.18,4,4,0,0,0-5.11-.07,2.79,2.79,0,0,0-1,2,3.18,3.18,0,0,0,1.05,2.37,4.76,4.76,0,0,0,2.52,1.18,7.31,7.31,0,0,1,3.07,1.27,4.62,4.62,0,0,1,1.87,3.42A5,5,0,0,1,464.07,235.09Z"/><path class="cls-1" d="M490.34,235.09l-.14.14a5,5,0,0,1-3.21,1.2h-.12a5.2,5.2,0,0,1-3.31-1.15,4.28,4.28,0,0,1-1.49-2.63l1.08-.17a3.15,3.15,0,0,0,1.13,2,4.14,4.14,0,0,0,5.25-.07,3.89,3.89,0,0,0,1.17-3,3.38,3.38,0,0,0-1.41-2.64,7,7,0,0,0-2.66-1.08,5.63,5.63,0,0,1-3.07-1.46,4.41,4.41,0,0,1-1.37-3.19,3.92,3.92,0,0,1,1.3-2.71,4.88,4.88,0,0,1,3.31-1.2,4.94,4.94,0,0,1,3.3,1.23,4,4,0,0,1,1.2,1.82l-1.1.17a2.94,2.94,0,0,0-.82-1.18,4,4,0,0,0-5.1-.07,2.79,2.79,0,0,0-1,2,3.18,3.18,0,0,0,1.05,2.37,4.76,4.76,0,0,0,2.52,1.18,7.23,7.23,0,0,1,3.06,1.27,4.6,4.6,0,0,1,1.88,3.42A5,5,0,0,1,490.34,235.09Z"/><path class="cls-1" d="M231.09,198.69V132.5a3.17,3.17,0,0,1,3.16-3.17,3.08,3.08,0,0,1,3.06,3.17v66.19a3,3,0,0,1-3.06,3.06A3.08,3.08,0,0,1,231.09,198.69Zm3.16,12.56a3.17,3.17,0,0,1-3.16-3.17,3.07,3.07,0,0,1,3.16-3.05h41.51a3.15,3.15,0,0,1,3.17,3.05,3.24,3.24,0,0,1-3.17,3.17Z"/><path class="cls-1" d="M294.33,202c-5.58-6.67-8.31-17-8.31-31.68a83,83,0,0,1,1.86-18.68c1.2-5.35,3.06-9.72,5.79-13a24.22,24.22,0,0,1,10.27-7.43A37.11,37.11,0,0,1,317.7,129c5.35,0,10.05.77,13.87,2.63a24.26,24.26,0,0,1,10.27,7.86c4.91,6.77,7.32,16.82,7.32,30.8a79.39,79.39,0,0,1-1.86,17.92,34.23,34.23,0,0,1-6.23,13c-5.24,6.88-13.1,10.38-23.37,10.38C307.1,211.58,299.46,208.41,294.33,202Zm4.15-59.42c-4.15,5.46-6.23,14.53-6.23,27.74s2.29,22.07,6.66,27.75c3.94,4.91,10.16,7.2,18.79,7.2,8.41,0,14.53-2.62,18.68-8.08,4.26-5.79,6.55-14.85,6.55-26.87,0-12.45-2-21.19-6-26.87-4-5.46-10.26-8.08-19.22-8.08C308.42,135.34,302.3,137.63,298.48,142.55Z"/><path class="cls-1" d="M356.69,210.71a3.26,3.26,0,0,1-.55-4.48l26.76-35.94-26.76-35.93a3.24,3.24,0,0,1,.55-4.48,3.13,3.13,0,0,1,4.37.65l28.18,37.91a3.12,3.12,0,0,1,0,3.82l-28.18,37.68a2.87,2.87,0,0,1-2.41,1.31A4.52,4.52,0,0,1,356.69,210.71Zm56-.77-23.05-30.58a3,3,0,0,1,.66-4.37,3.14,3.14,0,0,1,4.37.65l23.05,30.59a3.41,3.41,0,0,1-.66,4.48,3.76,3.76,0,0,1-1.86.54A2.91,2.91,0,0,1,412.72,209.94ZM390.33,165.7a3.19,3.19,0,0,1-.66-4.47l23.05-30.7a3.14,3.14,0,0,1,4.37-.65,3.39,3.39,0,0,1,.66,4.48L394.7,164.94a3.08,3.08,0,0,1-2.51,1.31A3.67,3.67,0,0,1,390.33,165.7Z"/><path class="cls-1" d="M489.83,211a3.13,3.13,0,0,1-4-1.64l-28.07-68.7-28.29,68.7a3.55,3.55,0,0,1-2.95,1.86,2.31,2.31,0,0,1-1.2-.22,3.17,3.17,0,0,1-1.75-4.15l31.35-75.69a3.13,3.13,0,0,1,2.84-1.86,3,3,0,0,1,2.84,1.86l31,75.69A3.18,3.18,0,0,1,489.83,211Zm-17.91-25a3.17,3.17,0,0,0-3.17-3.17H446.47a3.17,3.17,0,0,0,0,6.34h22.28A3.17,3.17,0,0,0,471.92,186Z"/><path class="cls-1" d="M180.49,113.86H113.05A31.63,31.63,0,0,0,81.42,145.5v67.43a31.64,31.64,0,0,0,31.63,31.64h67.44a31.64,31.64,0,0,0,31.63-31.64V145.5A31.63,31.63,0,0,0,180.49,113.86ZM115.8,190.17H102.87a1.84,1.84,0,0,1,0-3.67H115.8a1.84,1.84,0,1,1,0,3.67ZM128,202.85a1.82,1.82,0,0,1-2.34-.95L109.4,162,93,201.9A2.08,2.08,0,0,1,91.28,203a1.33,1.33,0,0,1-.7-.13,1.85,1.85,0,0,1-1-2.41l18.19-43.92a1.83,1.83,0,0,1,1.65-1.08,1.76,1.76,0,0,1,1.65,1.08l18,43.92A1.85,1.85,0,0,1,128,202.85Zm30.62-16.61a17.63,17.63,0,0,1-7.8,2.1H149a1.82,1.82,0,0,1-1.77-1.78,1.84,1.84,0,0,1,1.77-1.9h1.9a14.31,14.31,0,0,0,6.21-1.65c3.87-2.09,5.77-5.89,5.77-11.22,0-3.93-1.08-7-3.23-9.25a12.88,12.88,0,0,0-5.58-3,16.25,16.25,0,0,0-3.17-.38H136.4v25.54h6.21a1.85,1.85,0,0,1,1.84,1.9,1.83,1.83,0,0,1-1.84,1.78H136.4V201.2a1.83,1.83,0,0,1-1.83,1.78,1.78,1.78,0,0,1-1.78-1.78v-44a1.78,1.78,0,0,1,1.78-1.78h16.28A17.36,17.36,0,0,1,162.13,160c2.92,2.85,4.38,6.84,4.38,11.78C166.51,180.29,162.2,184.41,158.65,186.24Zm38.53,0a17.58,17.58,0,0,1-7.79,2.1h-1.9a1.82,1.82,0,0,1-1.78-1.78,1.84,1.84,0,0,1,1.78-1.9h1.9A14.33,14.33,0,0,0,195.6,183c3.87-2.09,5.77-5.89,5.77-11.22,0-3.93-1.08-7-3.23-9.25a12.88,12.88,0,0,0-5.58-3,16.39,16.39,0,0,0-3.17-.38H174.94v25.54h6.21a1.86,1.86,0,0,1,1.84,1.9,1.84,1.84,0,0,1-1.84,1.78h-6.21V201.2A1.83,1.83,0,0,1,173.1,203a1.78,1.78,0,0,1-1.77-1.78v-44a1.78,1.78,0,0,1,1.77-1.78h16.29A17.36,17.36,0,0,1,200.67,160c2.92,2.85,4.37,6.84,4.37,11.78C205,180.29,200.73,184.41,197.18,186.24Z"/></svg>