<svg id="Layer_1" data-name="Layer 1" xmlns="http://www.w3.org/2000/svg" xmlns:xlink="http://www.w3.org/1999/xlink" viewBox="0 0 595.28 364"><defs><style>.cls-1{fill:#262f45;}.cls-2{fill:url(#linear-gradient);}.cls-3{fill:url(#linear-gradient-2);}</style><linearGradient id="linear-gradient" x1="363.07" y1="170.26" x2="425.9" y2="170.26" gradientUnits="userSpaceOnUse"><stop offset="0" stop-color="#83d0f5"/><stop offset="1" stop-color="#1d71b8"/></linearGradient><linearGradient id="linear-gradient-2" x1="89" y1="179.21" x2="219.71" y2="179.21" gradientUnits="userSpaceOnUse"><stop offset="0" stop-color="#009fe3"/><stop offset="1" stop-color="#2d2e83"/></linearGradient></defs><path class="cls-1" d="M247,220.45h-4.8v15.77h-1.08V220.45h-4.79v-1.08H247Z"/><path class="cls-1" d="M270.73,236.48h-.31a8.11,8.11,0,0,1-5.65-2.56,9,9,0,0,1,0-12.35,8.11,8.11,0,0,1,5.65-2.56h.31a8.21,8.21,0,0,1,5.66,2.56,9,9,0,0,1,0,12.35A8.21,8.21,0,0,1,270.73,236.48Zm-.16-16.39a7.67,7.67,0,1,0,7.19,7.64A7.51,7.51,0,0,0,270.57,220.09Z"/><path class="cls-1" d="M326.65,235.09l-.14.14a5,5,0,0,1-3.21,1.2h-.12a5.2,5.2,0,0,1-3.31-1.15,4.28,4.28,0,0,1-1.49-2.63l1.08-.17a3.1,3.1,0,0,0,1.13,2,4.14,4.14,0,0,0,5.25-.07,3.89,3.89,0,0,0,1.17-3,3.38,3.38,0,0,0-1.41-2.64,7,7,0,0,0-2.66-1.08,5.63,5.63,0,0,1-3.07-1.46A4.37,4.37,0,0,1,318.5,223a3.92,3.92,0,0,1,1.3-2.71,4.87,4.87,0,0,1,3.3-1.2,4.94,4.94,0,0,1,3.31,1.23,4.09,4.09,0,0,1,1.2,1.82l-1.1.17a2.94,2.94,0,0,0-.82-1.18,4,4,0,0,0-5.1-.07,2.75,2.75,0,0,0-1,2,3.18,3.18,0,0,0,1.05,2.37,4.76,4.76,0,0,0,2.52,1.18,7.28,7.28,0,0,1,3.06,1.27,4.55,4.55,0,0,1,1.87,3.42A5,5,0,0,1,326.65,235.09Z"/><path class="cls-1" d="M350.79,236.41a5.44,5.44,0,0,1-5.42-5.44V219.44h1.08V231a4.34,4.34,0,1,0,8.67,0V219.44h1.08V231A5.43,5.43,0,0,1,350.79,236.41Z"/><path class="cls-1" d="M388.58,232.69a6.69,6.69,0,0,1-1,1.25,8.25,8.25,0,0,1-5.66,2.54h-.31a8.28,8.28,0,0,1-5.68-2.54,8.79,8.79,0,0,1,0-12.22,8.28,8.28,0,0,1,5.68-2.54h.31a8.25,8.25,0,0,1,5.66,2.54,7,7,0,0,1,1,1.24l-1,.46a7.31,7.31,0,0,0-5.83-3.14,7.57,7.57,0,1,0,5.83,12Z"/><path class="cls-1" d="M419.77,232.69a7.18,7.18,0,0,1-1,1.25,8.24,8.24,0,0,1-5.66,2.54h-.31a8.28,8.28,0,0,1-5.68-2.54,8.79,8.79,0,0,1,0-12.22,8.28,8.28,0,0,1,5.68-2.54h.31a8.24,8.24,0,0,1,5.66,2.54,7.5,7.5,0,0,1,1,1.24l-1,.46a7.3,7.3,0,0,0-5.82-3.14,7.57,7.57,0,1,0,5.82,12Z"/><path class="cls-1" d="M446.85,235.14v1.08H437v-16.8h9.53v1.07h-8.43v8h6.47v1.1h-6.47v5.56Z"/><path class="cls-1" d="M471.66,235.09l-.15.14a5,5,0,0,1-3.21,1.2h-.12a5.19,5.19,0,0,1-3.3-1.15,4.23,4.23,0,0,1-1.49-2.63l1.08-.17a3.09,3.09,0,0,0,1.12,2,4.14,4.14,0,0,0,5.25-.07,3.86,3.86,0,0,0,1.18-3,3.36,3.36,0,0,0-1.42-2.64,6.89,6.89,0,0,0-2.66-1.08,5.57,5.57,0,0,1-3.06-1.46,4.37,4.37,0,0,1-1.37-3.19,4,4,0,0,1,1.29-2.71,4.89,4.89,0,0,1,3.31-1.2,5,5,0,0,1,3.31,1.23,4.18,4.18,0,0,1,1.2,1.82l-1.11.17a2.91,2.91,0,0,0-.81-1.18,4,4,0,0,0-5.11-.07,2.82,2.82,0,0,0-1,2,3.19,3.19,0,0,0,1.06,2.37,4.76,4.76,0,0,0,2.51,1.18,7.26,7.26,0,0,1,3.07,1.27,4.62,4.62,0,0,1,1.87,3.42A5,5,0,0,1,471.66,235.09Z"/><path class="cls-1" d="M497.93,235.09l-.15.14a5,5,0,0,1-3.21,1.2h-.12a5.24,5.24,0,0,1-3.31-1.15,4.26,4.26,0,0,1-1.48-2.63l1.08-.17a3.09,3.09,0,0,0,1.12,2,4.14,4.14,0,0,0,5.25-.07,3.86,3.86,0,0,0,1.18-3,3.36,3.36,0,0,0-1.42-2.64,6.89,6.89,0,0,0-2.66-1.08,5.63,5.63,0,0,1-3.07-1.46,4.36,4.36,0,0,1-1.36-3.19,4,4,0,0,1,1.29-2.71,4.89,4.89,0,0,1,3.31-1.2,5,5,0,0,1,3.31,1.23,4.18,4.18,0,0,1,1.2,1.82l-1.11.17a2.91,2.91,0,0,0-.81-1.18,4,4,0,0,0-5.11-.07,2.79,2.79,0,0,0-1,2,3.19,3.19,0,0,0,1.06,2.37,4.69,4.69,0,0,0,2.51,1.18,7.26,7.26,0,0,1,3.07,1.27,4.62,4.62,0,0,1,1.87,3.42A5,5,0,0,1,497.93,235.09Z"/><path class="cls-1" d="M238.67,198.69V132.5a3.17,3.17,0,0,1,3.17-3.17,3.08,3.08,0,0,1,3.06,3.17v66.19a3,3,0,0,1-3.06,3.06A3.08,3.08,0,0,1,238.67,198.69Zm3.17,12.56a3.17,3.17,0,0,1-3.17-3.17,3.08,3.08,0,0,1,3.17-3.05h41.5a3.15,3.15,0,0,1,3.17,3.05,3.24,3.24,0,0,1-3.17,3.17Z"/><path class="cls-1" d="M301.91,202c-5.57-6.67-8.3-17-8.3-31.68a82.44,82.44,0,0,1,1.86-18.68c1.2-5.35,3-9.72,5.78-13a24.22,24.22,0,0,1,10.27-7.43A37.11,37.11,0,0,1,325.28,129c5.36,0,10.05.77,13.88,2.63a24.23,24.23,0,0,1,10.26,7.86c4.92,6.77,7.32,16.82,7.32,30.8a78.82,78.82,0,0,1-1.86,17.92,34.22,34.22,0,0,1-6.22,13c-5.24,6.88-13.11,10.38-23.38,10.38C314.69,211.58,307,208.41,301.91,202Zm4.15-59.42c-4.15,5.46-6.23,14.53-6.23,27.74s2.3,22.07,6.67,27.75c3.93,4.91,10.16,7.2,18.78,7.2,8.41,0,14.53-2.62,18.68-8.08,4.26-5.79,6.55-14.85,6.55-26.87,0-12.45-2-21.19-6-26.87-4-5.46-10.27-8.08-19.23-8.08C316,135.34,309.88,137.63,306.06,142.55Z"/><path class="cls-2" d="M364.27,210.71a3.25,3.25,0,0,1-.54-4.48l26.76-35.94-26.76-35.93a3.23,3.23,0,0,1,.54-4.48,3.12,3.12,0,0,1,4.37.65l28.18,37.91a3.09,3.09,0,0,1,0,3.82l-28.18,37.68a2.85,2.85,0,0,1-2.4,1.31A4.56,4.56,0,0,1,364.27,210.71Zm56-.77-23.05-30.58a3,3,0,0,1,.65-4.37,3.14,3.14,0,0,1,4.37.65l23.05,30.59a3.4,3.4,0,0,1-.66,4.48,3.73,3.73,0,0,1-1.85.54A2.89,2.89,0,0,1,420.31,209.94Zm-22.4-44.24a3.19,3.19,0,0,1-.65-4.47l23.05-30.7a3.13,3.13,0,0,1,4.36-.65,3.38,3.38,0,0,1,.66,4.48l-23.05,30.58a3.06,3.06,0,0,1-2.51,1.31A3.7,3.7,0,0,1,397.91,165.7Z"/><path class="cls-1" d="M497.41,211a3.13,3.13,0,0,1-4-1.64l-28.07-68.7L437,209.39a3.53,3.53,0,0,1-2.95,1.86,2.35,2.35,0,0,1-1.2-.22,3.18,3.18,0,0,1-1.75-4.15l31.35-75.69a3.14,3.14,0,0,1,2.84-1.86,3,3,0,0,1,2.84,1.86l31,75.69A3.17,3.17,0,0,1,497.41,211ZM479.5,186a3.17,3.17,0,0,0-3.17-3.17H454.05a3.17,3.17,0,0,0,0,6.34h22.28A3.17,3.17,0,0,0,479.5,186Z"/><path class="cls-3" d="M188.07,113.86H120.64A31.64,31.64,0,0,0,89,145.5v67.43a31.65,31.65,0,0,0,31.64,31.64h67.43a31.65,31.65,0,0,0,31.64-31.64V145.5A31.64,31.64,0,0,0,188.07,113.86Zm-64.68,76.31H110.46a1.84,1.84,0,1,1,0-3.67h12.93a1.84,1.84,0,0,1,0,3.67Zm12.23,12.68a1.83,1.83,0,0,1-2.35-.95L117,162,100.57,201.9A2.07,2.07,0,0,1,98.86,203a1.36,1.36,0,0,1-.7-.13,1.84,1.84,0,0,1-1-2.41l18.19-43.92a1.82,1.82,0,0,1,1.65-1.08,1.74,1.74,0,0,1,1.64,1.08l18,43.92A1.84,1.84,0,0,1,135.62,202.85Zm30.61-16.61a17.58,17.58,0,0,1-7.79,2.1h-1.9a1.82,1.82,0,0,1-1.78-1.78,1.84,1.84,0,0,1,1.78-1.9h1.9a14.33,14.33,0,0,0,6.21-1.65c3.86-2.09,5.77-5.89,5.77-11.22,0-3.93-1.08-7-3.24-9.25a12.78,12.78,0,0,0-5.57-3,16.39,16.39,0,0,0-3.17-.38H144v25.54h6.21a1.86,1.86,0,0,1,1.84,1.9,1.84,1.84,0,0,1-1.84,1.78H144V201.2a1.84,1.84,0,0,1-1.84,1.78,1.78,1.78,0,0,1-1.77-1.78v-44a1.78,1.78,0,0,1,1.77-1.78h16.29A17.36,17.36,0,0,1,169.72,160c2.91,2.85,4.37,6.84,4.37,11.78C174.09,180.29,169.78,184.41,166.23,186.24Zm38.54,0a17.63,17.63,0,0,1-7.8,2.1h-1.9a1.82,1.82,0,0,1-1.77-1.78,1.84,1.84,0,0,1,1.77-1.9H197a14.31,14.31,0,0,0,6.21-1.65c3.87-2.09,5.77-5.89,5.77-11.22,0-3.93-1.08-7-3.23-9.25a12.88,12.88,0,0,0-5.58-3,16.25,16.25,0,0,0-3.17-.38H182.52v25.54h6.21a1.85,1.85,0,0,1,1.84,1.9,1.83,1.83,0,0,1-1.84,1.78h-6.21V201.2a1.83,1.83,0,0,1-1.83,1.78,1.78,1.78,0,0,1-1.78-1.78v-44a1.78,1.78,0,0,1,1.78-1.78H197A17.36,17.36,0,0,1,208.25,160c2.92,2.85,4.38,6.84,4.38,11.78C212.63,180.29,208.32,184.41,204.77,186.24Z"/></svg>