<svg id="Layer_1" data-name="Layer 1" xmlns="http://www.w3.org/2000/svg" xmlns:xlink="http://www.w3.org/1999/xlink" viewBox="0 0 595.28 364"><defs><style>.cls-1{fill:url(#linear-gradient);}.cls-2{fill:#fff;}</style><linearGradient id="linear-gradient" x1="160.13" y1="174.19" x2="449.52" y2="174.19" gradientUnits="userSpaceOnUse"><stop offset="0" stop-color="#009fe3"/><stop offset="1" stop-color="#2d2e83"/></linearGradient></defs><rect class="cls-1" x="160.13" y="29.5" width="289.39" height="289.39" rx="70.04"/><path class="cls-2" d="M203.39,255.69h-4.13v13.58h-.93V255.69h-4.12v-.93h9.18Z"/><path class="cls-2" d="M223.86,269.5h-.26a7,7,0,0,1-4.87-2.21,7.7,7.7,0,0,1,0-10.63,7,7,0,0,1,4.87-2.21h.26a7.12,7.12,0,0,1,4.87,2.21,7.75,7.75,0,0,1,0,10.63A7.08,7.08,0,0,1,223.86,269.5Zm-.14-14.12a6.61,6.61,0,1,0,6.19,6.59A6.47,6.47,0,0,0,223.72,255.38Z"/><path class="cls-2" d="M272,268.3l-.12.13a4.32,4.32,0,0,1-2.76,1H269a4.49,4.49,0,0,1-2.85-1,3.74,3.74,0,0,1-1.28-2.27l.93-.15a2.75,2.75,0,0,0,1,1.69,3.56,3.56,0,0,0,4.52-.06,3.32,3.32,0,0,0,1-2.58,2.9,2.9,0,0,0-1.21-2.27,6,6,0,0,0-2.29-.93,4.83,4.83,0,0,1-2.65-1.25A3.79,3.79,0,0,1,265,257.9a3.36,3.36,0,0,1,1.11-2.33,4.22,4.22,0,0,1,2.85-1,4.28,4.28,0,0,1,2.85,1.05,3.59,3.59,0,0,1,1,1.57l-.95.14a2.53,2.53,0,0,0-.7-1,3.47,3.47,0,0,0-4.4-.06,2.41,2.41,0,0,0-.84,1.71,2.76,2.76,0,0,0,.91,2,4.06,4.06,0,0,0,2.16,1,6.29,6.29,0,0,1,2.64,1.09,3.94,3.94,0,0,1,1.61,3A4.25,4.25,0,0,1,272,268.3Z"/><path class="cls-2" d="M292.8,269.44a4.69,4.69,0,0,1-4.67-4.69v-9.92h.93v9.92a3.74,3.74,0,1,0,7.47,0v-9.92h.93v9.92A4.68,4.68,0,0,1,292.8,269.44Z"/><path class="cls-2" d="M325.35,266.24a6.36,6.36,0,0,1-.87,1.07,7.1,7.1,0,0,1-4.87,2.19h-.27a7.15,7.15,0,0,1-4.89-2.19,7.56,7.56,0,0,1,0-10.52,7.11,7.11,0,0,1,4.89-2.19h.27a7.06,7.06,0,0,1,4.87,2.19,6.36,6.36,0,0,1,.87,1.07l-.87.39a6.28,6.28,0,0,0-5-2.7,6.52,6.52,0,1,0,5,10.3Z"/><path class="cls-2" d="M352.2,266.24a6.36,6.36,0,0,1-.87,1.07,7.1,7.1,0,0,1-4.87,2.19h-.27a7.15,7.15,0,0,1-4.89-2.19,7.56,7.56,0,0,1,0-10.52,7.11,7.11,0,0,1,4.89-2.19h.27a7.06,7.06,0,0,1,4.87,2.19,6.36,6.36,0,0,1,.87,1.07l-.87.39a6.28,6.28,0,0,0-5-2.7,6.52,6.52,0,1,0,5,10.3Z"/><path class="cls-2" d="M375.52,268.34v.93h-8.46V254.8h8.21v.93H368v6.88h5.57v.94H368v4.79Z"/><path class="cls-2" d="M396.88,268.3l-.12.13a4.37,4.37,0,0,1-2.77,1h-.1a4.45,4.45,0,0,1-2.85-1,3.69,3.69,0,0,1-1.28-2.27l.93-.15a2.66,2.66,0,0,0,1,1.69,3.56,3.56,0,0,0,4.52-.06,3.35,3.35,0,0,0,1-2.58,2.88,2.88,0,0,0-1.22-2.27,5.87,5.87,0,0,0-2.29-.93,4.81,4.81,0,0,1-2.64-1.25,3.8,3.8,0,0,1-1.18-2.75,3.42,3.42,0,0,1,1.12-2.33,4.41,4.41,0,0,1,5.69,0,3.53,3.53,0,0,1,1,1.57l-.95.14a2.64,2.64,0,0,0-.7-1,3.47,3.47,0,0,0-4.4-.06,2.38,2.38,0,0,0-.85,1.71,2.76,2.76,0,0,0,.91,2,4.09,4.09,0,0,0,2.17,1,6.35,6.35,0,0,1,2.64,1.09,3.94,3.94,0,0,1,1.61,3A4.28,4.28,0,0,1,396.88,268.3Z"/><path class="cls-2" d="M419.5,268.3l-.12.13a4.37,4.37,0,0,1-2.77,1h-.1a4.47,4.47,0,0,1-2.85-1,3.69,3.69,0,0,1-1.28-2.27l.93-.15a2.66,2.66,0,0,0,1,1.69,3.56,3.56,0,0,0,4.52-.06,3.35,3.35,0,0,0,1-2.58,2.88,2.88,0,0,0-1.22-2.27,5.87,5.87,0,0,0-2.29-.93,4.81,4.81,0,0,1-2.64-1.25,3.8,3.8,0,0,1-1.18-2.75,3.37,3.37,0,0,1,1.12-2.33,4.41,4.41,0,0,1,5.69,0,3.53,3.53,0,0,1,1,1.57l-.95.14a2.64,2.64,0,0,0-.7-1,3.47,3.47,0,0,0-4.4-.06,2.38,2.38,0,0,0-.85,1.71,2.76,2.76,0,0,0,.91,2,4.09,4.09,0,0,0,2.17,1,6.35,6.35,0,0,1,2.64,1.09,3.94,3.94,0,0,1,1.61,3A4.28,4.28,0,0,1,419.5,268.3Z"/><path class="cls-2" d="M196.26,237V180a2.73,2.73,0,0,1,2.72-2.73,2.66,2.66,0,0,1,2.64,2.73v57a2.57,2.57,0,0,1-2.64,2.63A2.65,2.65,0,0,1,196.26,237ZM199,247.77a2.72,2.72,0,0,1-2.72-2.72,2.65,2.65,0,0,1,2.72-2.64h35.74a2.71,2.71,0,0,1,2.73,2.64,2.79,2.79,0,0,1-2.73,2.72Z"/><path class="cls-2" d="M250.71,239.78c-4.8-5.74-7.15-14.67-7.15-27.28a71.62,71.62,0,0,1,1.6-16.08c1-4.61,2.63-8.37,5-11.19a20.78,20.78,0,0,1,8.84-6.4A32.11,32.11,0,0,1,270.84,177a27.32,27.32,0,0,1,11.94,2.26,20.86,20.86,0,0,1,8.84,6.77c4.24,5.83,6.3,14.48,6.3,26.52a68.49,68.49,0,0,1-1.59,15.43A29.58,29.58,0,0,1,291,239.12c-4.52,5.93-11.29,8.94-20.13,8.94C261.71,248.06,255.13,245.33,250.71,239.78Zm3.57-51.17c-3.57,4.71-5.36,12.51-5.36,23.89s2,19,5.74,23.89c3.39,4.24,8.75,6.21,16.18,6.21,7.24,0,12.51-2.26,16.08-7,3.67-5,5.64-12.79,5.64-23.14,0-10.72-1.69-18.24-5.17-23.13-3.48-4.71-8.84-7-16.55-7C262.84,182.41,257.58,184.38,254.28,188.61Z"/><path class="cls-2" d="M304.41,247.3a2.79,2.79,0,0,1-.47-3.85l23-30.95-23-30.94a2.79,2.79,0,0,1,.47-3.86,2.69,2.69,0,0,1,3.76.57l24.27,32.63a2.7,2.7,0,0,1,0,3.3l-24.27,32.45a2.46,2.46,0,0,1-2.07,1.12A3.72,3.72,0,0,1,304.41,247.3Zm48.25-.65-19.84-26.34a2.61,2.61,0,0,1,.56-3.76,2.7,2.7,0,0,1,3.76.56L357,243.45a2.92,2.92,0,0,1-.57,3.85,3.08,3.08,0,0,1-1.6.47A2.52,2.52,0,0,1,352.66,246.65Zm-19.28-38.1a2.74,2.74,0,0,1-.56-3.85l19.84-26.43a2.71,2.71,0,0,1,3.76-.57,2.92,2.92,0,0,1,.57,3.86l-19.85,26.33A2.6,2.6,0,0,1,335,209,3.08,3.08,0,0,1,333.38,208.55Z"/><path class="cls-2" d="M419.06,247.59a2.7,2.7,0,0,1-3.48-1.42L391.41,187l-24.36,59.16a3.06,3.06,0,0,1-2.54,1.6,2.13,2.13,0,0,1-1-.18A2.74,2.74,0,0,1,362,244l27-65.18a2.7,2.7,0,0,1,2.45-1.6,2.58,2.58,0,0,1,2.44,1.6L420.56,244A2.74,2.74,0,0,1,419.06,247.59Zm-15.43-21.54a2.72,2.72,0,0,0-2.72-2.73H381.72a2.73,2.73,0,1,0,0,5.45h19.19A2.72,2.72,0,0,0,403.63,226.05Z"/><path class="cls-2" d="M266.71,148.69a3.41,3.41,0,1,1-6.81,0V121.22a3.41,3.41,0,0,1,6.81,0Z"/><path class="cls-2" d="M320,148.69a3.41,3.41,0,1,1-6.81,0V110.94H263.24a3.44,3.44,0,0,1-3.34-3.46V66a3.41,3.41,0,1,1,6.81,0v38h49.93a3.45,3.45,0,0,1,3.35,3.46Z"/><path class="cls-2" d="M320,93.5a3.41,3.41,0,0,1-6.81,0V66A3.41,3.41,0,1,1,320,66Z"/><path class="cls-2" d="M346.85,123.33a2.73,2.73,0,0,1-.06.5,3,3,0,0,1,.06.52v24.79a3.38,3.38,0,0,1-3.54,3c-2,0-3.66-1.4-3.66-3V124.35a2.25,2.25,0,0,1,.07-.52,2.08,2.08,0,0,1-.07-.5V98.54a3.43,3.43,0,0,1,3.66-3.12,3.39,3.39,0,0,1,3.54,3.12Z"/><path class="cls-2" d="M346.85,89.52a3.38,3.38,0,0,1-3.54,3c-2,0-3.66-1.4-3.66-3V64.73a3.43,3.43,0,0,1,3.66-3.12,3.39,3.39,0,0,1,3.54,3.12Z"/></svg>