<svg id="Layer_1" data-name="Layer 1" xmlns="http://www.w3.org/2000/svg" xmlns:xlink="http://www.w3.org/1999/xlink" viewBox="0 0 595.28 364"><defs><style>.cls-1{fill:#fff;}.cls-2{fill:url(#linear-gradient);}</style><linearGradient id="linear-gradient" x1="312.65" y1="179.8" x2="380.3" y2="179.8" gradientUnits="userSpaceOnUse"><stop offset="0" stop-color="#009fe3"/><stop offset="1" stop-color="#2d2e83"/></linearGradient></defs><path class="cls-1" d="M251.64,237.82H248.8v9.31h-.63v-9.31h-2.84v-.64h6.31Z"/><path class="cls-1" d="M265.68,247.29h-.18a4.76,4.76,0,0,1-3.34-1.52,5.28,5.28,0,0,1,0-7.29A4.79,4.79,0,0,1,265.5,237h.18a4.85,4.85,0,0,1,3.34,1.51,5.31,5.31,0,0,1,0,7.29A4.82,4.82,0,0,1,265.68,247.29Zm-.1-9.69a4.53,4.53,0,1,0,4.25,4.52A4.44,4.44,0,0,0,265.58,237.6Z"/><path class="cls-1" d="M298.71,246.47l-.08.08a3,3,0,0,1-1.9.71h-.07a3,3,0,0,1-2-.68,2.5,2.5,0,0,1-.88-1.56l.64-.1a1.8,1.8,0,0,0,.66,1.16,2.44,2.44,0,0,0,3.1,0,2.31,2.31,0,0,0,.7-1.77,2,2,0,0,0-.84-1.56,4,4,0,0,0-1.57-.63,3.28,3.28,0,0,1-1.81-.87,2.55,2.55,0,0,1-.81-1.88,2.33,2.33,0,0,1,.76-1.6,3,3,0,0,1,3.91,0,2.37,2.37,0,0,1,.71,1.07l-.65.1a1.8,1.8,0,0,0-.48-.69,2.38,2.38,0,0,0-3,0,1.67,1.67,0,0,0-.58,1.18,1.9,1.9,0,0,0,.62,1.4,2.78,2.78,0,0,0,1.49.69,4.4,4.4,0,0,1,1.81.75,2.75,2.75,0,0,1,1.11,2A2.94,2.94,0,0,1,298.71,246.47Z"/><path class="cls-1" d="M313,247.25a3.21,3.21,0,0,1-3.2-3.22v-6.81h.64V244a2.56,2.56,0,1,0,5.12,0v-6.81h.64V244A3.21,3.21,0,0,1,313,247.25Z"/><path class="cls-1" d="M335.3,245.05a4.67,4.67,0,0,1-.59.74,4.9,4.9,0,0,1-3.35,1.5h-.18a4.93,4.93,0,0,1-3.36-1.5,5.22,5.22,0,0,1,0-7.22,4.93,4.93,0,0,1,3.36-1.5h.18a4.9,4.9,0,0,1,3.35,1.5,4.19,4.19,0,0,1,.59.73l-.59.27a4.33,4.33,0,0,0-3.44-1.85,4.47,4.47,0,0,0,0,8.93,4.35,4.35,0,0,0,3.44-1.87Z"/><path class="cls-1" d="M353.72,245.05a4.67,4.67,0,0,1-.59.74,4.9,4.9,0,0,1-3.35,1.5h-.18a4.93,4.93,0,0,1-3.36-1.5,5.22,5.22,0,0,1,0-7.22,4.93,4.93,0,0,1,3.36-1.5h.18a4.9,4.9,0,0,1,3.35,1.5,4.19,4.19,0,0,1,.59.73l-.59.27a4.33,4.33,0,0,0-3.44-1.85,4.47,4.47,0,0,0,0,8.93,4.35,4.35,0,0,0,3.44-1.87Z"/><path class="cls-1" d="M369.72,246.5v.63h-5.8v-9.92h5.63v.63h-5v4.72h3.82v.65h-3.82v3.29Z"/><path class="cls-1" d="M384.38,246.47l-.09.08a3,3,0,0,1-1.9.71h-.07a3.06,3.06,0,0,1-1.95-.68,2.55,2.55,0,0,1-.88-1.56l.64-.1a1.84,1.84,0,0,0,.66,1.16,2.44,2.44,0,0,0,3.1,0,2.28,2.28,0,0,0,.7-1.77,2,2,0,0,0-.84-1.56,4,4,0,0,0-1.57-.63,3.28,3.28,0,0,1-1.81-.87,2.55,2.55,0,0,1-.81-1.88,2.3,2.3,0,0,1,.77-1.6,2.86,2.86,0,0,1,1.95-.71,2.89,2.89,0,0,1,2,.73,2.37,2.37,0,0,1,.71,1.07l-.65.1a1.7,1.7,0,0,0-.48-.69,2.38,2.38,0,0,0-3,0,1.71,1.71,0,0,0-.58,1.18,1.87,1.87,0,0,0,.63,1.4,2.75,2.75,0,0,0,1.48.69,4.4,4.4,0,0,1,1.81.75,2.72,2.72,0,0,1,1.11,2A3,3,0,0,1,384.38,246.47Z"/><path class="cls-1" d="M399.89,246.47l-.08.08a3,3,0,0,1-1.9.71h-.07a3,3,0,0,1-1.95-.68A2.46,2.46,0,0,1,395,245l.64-.1a1.8,1.8,0,0,0,.66,1.16,2.44,2.44,0,0,0,3.1,0,2.31,2.31,0,0,0,.7-1.77,2,2,0,0,0-.84-1.56,4,4,0,0,0-1.57-.63,3.28,3.28,0,0,1-1.81-.87,2.55,2.55,0,0,1-.81-1.88,2.33,2.33,0,0,1,.76-1.6,3,3,0,0,1,3.91,0,2.37,2.37,0,0,1,.71,1.07l-.65.1a1.8,1.8,0,0,0-.48-.69,2.38,2.38,0,0,0-3,0,1.64,1.64,0,0,0-.58,1.18,1.9,1.9,0,0,0,.62,1.4,2.78,2.78,0,0,0,1.49.69,4.4,4.4,0,0,1,1.81.75,2.75,2.75,0,0,1,1.11,2A2.94,2.94,0,0,1,399.89,246.47Z"/><path class="cls-1" d="M178.72,210.41V139.14a3.41,3.41,0,0,1,3.41-3.41,3.31,3.31,0,0,1,3.29,3.41v71.27a3.21,3.21,0,0,1-3.29,3.29A3.31,3.31,0,0,1,178.72,210.41Zm3.41,13.52a3.41,3.41,0,0,1-3.41-3.41,3.31,3.31,0,0,1,3.41-3.29h44.69a3.39,3.39,0,0,1,3.41,3.29,3.49,3.49,0,0,1-3.41,3.41Z"/><path class="cls-1" d="M246.8,213.93c-6-7.17-8.93-18.34-8.93-34.1a88.89,88.89,0,0,1,2-20.11c1.29-5.76,3.29-10.46,6.23-14a26.09,26.09,0,0,1,11-8c4.12-1.65,9.06-2.35,14.82-2.35s10.82.82,14.93,2.82A26.24,26.24,0,0,1,298,146.67c5.29,7.29,7.88,18.11,7.88,33.16a85.54,85.54,0,0,1-2,19.29,37,37,0,0,1-6.7,14c-5.65,7.41-14.12,11.17-25.17,11.17C260.56,224.28,252.33,220.87,246.8,213.93Zm4.47-64c-4.47,5.88-6.7,15.64-6.7,29.87s2.47,23.75,7.17,29.87c4.24,5.29,10.94,7.76,20.23,7.76,9,0,15.64-2.82,20.11-8.7,4.59-6.23,7.05-16,7.05-28.93,0-13.41-2.11-22.81-6.46-28.93-4.35-5.88-11.06-8.7-20.7-8.7C262,142.2,255.39,144.67,251.27,150Z"/><path class="cls-2" d="M314,223.34a3.49,3.49,0,0,1-.59-4.82l28.81-38.69-28.81-38.69a3.47,3.47,0,0,1,.59-4.82,3.36,3.36,0,0,1,4.7.71L349,177.83a3.36,3.36,0,0,1,0,4.12l-30.34,40.57a3.1,3.1,0,0,1-2.59,1.41A4.81,4.81,0,0,1,314,223.34Zm60.32-.82-24.81-32.93a3.27,3.27,0,0,1,.71-4.7,3.37,3.37,0,0,1,4.7.7l24.81,32.93a3.66,3.66,0,0,1-.7,4.82,4,4,0,0,1-2,.59A3.16,3.16,0,0,1,374.27,222.52Zm-24.1-47.63a3.43,3.43,0,0,1-.71-4.82l24.81-33a3.38,3.38,0,0,1,4.71-.71,3.64,3.64,0,0,1,.7,4.82l-24.81,32.93a3.3,3.3,0,0,1-2.7,1.41A4,4,0,0,1,350.17,174.89Z"/><path class="cls-1" d="M457.29,223.69a3.37,3.37,0,0,1-4.35-1.76l-30.22-74-30.46,74a3.82,3.82,0,0,1-3.17,2,2.51,2.51,0,0,1-1.3-.24,3.42,3.42,0,0,1-1.88-4.47l33.75-81.49a3.36,3.36,0,0,1,3.06-2,3.23,3.23,0,0,1,3,2l33.4,81.49A3.42,3.42,0,0,1,457.29,223.69ZM438,196.76a3.41,3.41,0,0,0-3.41-3.41h-24a3.41,3.41,0,1,0,0,6.82h24A3.4,3.4,0,0,0,438,196.76Z"/></svg>