<svg id="Layer_1" data-name="Layer 1" xmlns="http://www.w3.org/2000/svg" xmlns:xlink="http://www.w3.org/1999/xlink" viewBox="0 0 595.28 364"><defs><style>.cls-1{fill:#262f45;}.cls-2{fill:url(#linear-gradient);}.cls-3{fill:url(#linear-gradient-2);}</style><linearGradient id="linear-gradient" x1="348.43" y1="162.11" x2="404.65" y2="162.11" gradientUnits="userSpaceOnUse"><stop offset="0" stop-color="#009fe3"/><stop offset="1" stop-color="#2d2e83"/></linearGradient><linearGradient id="linear-gradient-2" x1="113.73" y1="172.35" x2="221.46" y2="172.35" xlink:href="#linear-gradient"/></defs><path class="cls-1" d="M246.5,209.14h-4.26v14h-1v-14H237v-1h9.47Z"/><path class="cls-1" d="M267.6,223.36h-.28a7.22,7.22,0,0,1-5-2.27,8,8,0,0,1,0-11,7.22,7.22,0,0,1,5-2.27h.28a7.3,7.3,0,0,1,5,2.27,8,8,0,0,1,0,11A7.3,7.3,0,0,1,267.6,223.36Zm-.15-14.54a6.81,6.81,0,1,0,6.38,6.78A6.66,6.66,0,0,0,267.45,208.82Z"/><path class="cls-1" d="M317.22,222.13l-.13.13a4.46,4.46,0,0,1-2.85,1.06h-.11a4.6,4.6,0,0,1-2.93-1,3.84,3.84,0,0,1-1.32-2.34l1-.15a2.74,2.74,0,0,0,1,1.75,3.68,3.68,0,0,0,4.65-.07,3.44,3.44,0,0,0,1.05-2.66,3,3,0,0,0-1.26-2.34,6.11,6.11,0,0,0-2.36-1,5,5,0,0,1-2.72-1.3,3.84,3.84,0,0,1-1.21-2.83,3.47,3.47,0,0,1,1.14-2.4,4.53,4.53,0,0,1,5.87,0,3.57,3.57,0,0,1,1.07,1.62l-1,.14a2.68,2.68,0,0,0-.72-1,3.56,3.56,0,0,0-4.53-.06,2.43,2.43,0,0,0-.87,1.76,2.8,2.8,0,0,0,.93,2.11,4.16,4.16,0,0,0,2.23,1,6.65,6.65,0,0,1,2.73,1.13,4.12,4.12,0,0,1,1.66,3A4.45,4.45,0,0,1,317.22,222.13Z"/><path class="cls-1" d="M338.64,223.3a4.82,4.82,0,0,1-4.81-4.83V208.24h1v10.23a3.85,3.85,0,1,0,7.69,0V208.24h1v10.23A4.82,4.82,0,0,1,338.64,223.3Z"/><path class="cls-1" d="M372.18,220a6.43,6.43,0,0,1-.9,1.11,7.31,7.31,0,0,1-5,2.25H366a7.35,7.35,0,0,1-5-2.25,7.81,7.81,0,0,1,0-10.85,7.35,7.35,0,0,1,5-2.25h.27a7.31,7.31,0,0,1,5,2.25,6.43,6.43,0,0,1,.9,1.11l-.9.4a6.46,6.46,0,0,0-5.17-2.78,6.72,6.72,0,1,0,5.17,10.61Z"/><path class="cls-1" d="M399.85,220a6.43,6.43,0,0,1-.9,1.11,7.31,7.31,0,0,1-5,2.25h-.27a7.35,7.35,0,0,1-5-2.25,7.81,7.81,0,0,1,0-10.85,7.35,7.35,0,0,1,5-2.25h.27a7.31,7.31,0,0,1,5,2.25,6.43,6.43,0,0,1,.9,1.11l-.9.4a6.46,6.46,0,0,0-5.17-2.78A6.72,6.72,0,1,0,399,219.6Z"/><path class="cls-1" d="M423.88,222.17v1h-8.72V208.22h8.47v1h-7.49v7.08h5.74v1h-5.74v4.93Z"/><path class="cls-1" d="M445.89,222.13l-.12.13a4.49,4.49,0,0,1-2.85,1.06h-.11a4.56,4.56,0,0,1-2.93-1,3.75,3.75,0,0,1-1.32-2.34l.95-.15a2.83,2.83,0,0,0,1,1.75,3.69,3.69,0,0,0,4.66-.07,3.43,3.43,0,0,0,1-2.66,3,3,0,0,0-1.25-2.34,6.17,6.17,0,0,0-2.36-1,5,5,0,0,1-2.72-1.3,3.89,3.89,0,0,1-1.22-2.83,3.52,3.52,0,0,1,1.15-2.4,4.32,4.32,0,0,1,2.94-1.07,4.39,4.39,0,0,1,2.93,1.09,3.74,3.74,0,0,1,1.07,1.62l-1,.14a2.71,2.71,0,0,0-.73-1,3.56,3.56,0,0,0-4.53-.06,2.47,2.47,0,0,0-.87,1.76,2.85,2.85,0,0,0,.94,2.11,4.16,4.16,0,0,0,2.23,1,6.56,6.56,0,0,1,2.72,1.13,4.06,4.06,0,0,1,1.66,3A4.38,4.38,0,0,1,445.89,222.13Z"/><path class="cls-1" d="M469.2,222.13l-.12.13a4.49,4.49,0,0,1-2.85,1.06h-.11a4.58,4.58,0,0,1-2.93-1,3.75,3.75,0,0,1-1.32-2.34l.95-.15a2.83,2.83,0,0,0,1,1.75,3.69,3.69,0,0,0,4.66-.07,3.43,3.43,0,0,0,1-2.66,3,3,0,0,0-1.25-2.34,6.17,6.17,0,0,0-2.36-1,5,5,0,0,1-2.72-1.3,3.89,3.89,0,0,1-1.22-2.83,3.52,3.52,0,0,1,1.15-2.4,4.32,4.32,0,0,1,2.94-1.07A4.39,4.39,0,0,1,469,209a3.74,3.74,0,0,1,1.07,1.62l-1,.14a2.71,2.71,0,0,0-.73-1,3.56,3.56,0,0,0-4.53-.06,2.47,2.47,0,0,0-.87,1.76,2.85,2.85,0,0,0,.94,2.11,4.16,4.16,0,0,0,2.23,1,6.56,6.56,0,0,1,2.72,1.13,4.06,4.06,0,0,1,1.66,3A4.38,4.38,0,0,1,469.2,222.13Z"/><path class="cls-1" d="M237.13,187.55V128.33a2.84,2.84,0,0,1,2.84-2.84,2.75,2.75,0,0,1,2.73,2.84v59.22a2.67,2.67,0,0,1-2.73,2.74A2.76,2.76,0,0,1,237.13,187.55ZM240,198.79a2.84,2.84,0,0,1-2.84-2.84,2.75,2.75,0,0,1,2.84-2.73H277.1a2.82,2.82,0,0,1,2.84,2.73,2.9,2.9,0,0,1-2.84,2.84Z"/><path class="cls-1" d="M293.71,190.48c-5-6-7.42-15.24-7.42-28.34A73.84,73.84,0,0,1,288,145.43c1.07-4.79,2.73-8.7,5.18-11.63a21.7,21.7,0,0,1,9.18-6.65,33.44,33.44,0,0,1,12.32-2c4.79,0,9,.68,12.41,2.34a21.74,21.74,0,0,1,9.18,7c4.4,6.06,6.55,15,6.55,27.56a70.65,70.65,0,0,1-1.66,16,30.7,30.7,0,0,1-5.57,11.63c-4.69,6.15-11.73,9.28-20.91,9.28C305.15,199.08,298.31,196.25,293.71,190.48Zm3.72-53.16c-3.72,4.88-5.57,13-5.57,24.82s2.05,19.74,6,24.82c3.52,4.4,9.09,6.45,16.81,6.45,7.52,0,13-2.34,16.71-7.23,3.81-5.18,5.86-13.29,5.86-24,0-11.14-1.76-19-5.37-24-3.62-4.89-9.19-7.23-17.2-7.23C306.32,130.87,300.85,132.92,297.43,137.32Z"/><path class="cls-2" d="M349.51,198.3a2.92,2.92,0,0,1-.49-4l24-32.15L349,130a2.91,2.91,0,0,1,.49-4,2.8,2.8,0,0,1,3.91.59l25.21,33.91a2.76,2.76,0,0,1,0,3.42l-25.21,33.72a2.58,2.58,0,0,1-2.15,1.17A4,4,0,0,1,349.51,198.3Zm50.14-.68L379,170.25a2.73,2.73,0,0,1,.59-3.91,2.81,2.81,0,0,1,3.91.59l20.62,27.36a3,3,0,0,1-.59,4,3.29,3.29,0,0,1-1.66.49A2.59,2.59,0,0,1,399.65,197.62Zm-20-39.58a2.87,2.87,0,0,1-.59-4l20.63-27.46a2.8,2.8,0,0,1,3.9-.59,3,3,0,0,1,.59,4l-20.62,27.36a2.75,2.75,0,0,1-2.25,1.17A3.34,3.34,0,0,1,379.61,158Z"/><path class="cls-1" d="M468.64,198.59a2.81,2.81,0,0,1-3.62-1.46l-25.11-61.47-25.32,61.47a3.18,3.18,0,0,1-2.63,1.66,2.06,2.06,0,0,1-1.08-.2,2.83,2.83,0,0,1-1.56-3.71l28-67.73a2.83,2.83,0,0,1,2.55-1.66,2.71,2.71,0,0,1,2.54,1.66l27.75,67.73A2.84,2.84,0,0,1,468.64,198.59Zm-16-22.38a2.83,2.83,0,0,0-2.83-2.83H429.84a2.84,2.84,0,0,0,0,5.67h19.94A2.84,2.84,0,0,0,452.61,176.21Z"/><path class="cls-3" d="M195.38,118.48H139.8a26.08,26.08,0,0,0-26.07,26.08v55.58a26.08,26.08,0,0,0,26.07,26.08h55.58a26.08,26.08,0,0,0,26.08-26.08V144.56A26.08,26.08,0,0,0,195.38,118.48Zm-52.76,82.35a2.32,2.32,0,1,1-4.64,0V182.11a2.32,2.32,0,0,1,4.64,0Zm36.29,0a2.32,2.32,0,1,1-4.64,0V175.12h-34a2.35,2.35,0,0,1-2.28-2.36V144.52a2.32,2.32,0,1,1,4.64,0V170.4h34a2.35,2.35,0,0,1,2.28,2.36Zm0-37.59a2.32,2.32,0,0,1-4.64,0V144.52a2.32,2.32,0,1,1,4.64,0Zm18.29,20.31a1.27,1.27,0,0,1,0,.34,1.42,1.42,0,0,1,0,.36v16.88a2.3,2.3,0,0,1-2.4,2.06,2.34,2.34,0,0,1-2.5-2.06V184.25a1.42,1.42,0,0,1,0-.36,1.27,1.27,0,0,1,0-.34V166.67a2.34,2.34,0,0,1,2.5-2.13,2.3,2.3,0,0,1,2.4,2.13Zm0-23a2.29,2.29,0,0,1-2.4,2.05,2.33,2.33,0,0,1-2.5-2.05V143.64a2.34,2.34,0,0,1,2.5-2.13,2.3,2.3,0,0,1,2.4,2.13Z"/></svg>